<?xml version="1.0" encoding="UTF-8" standalone="no"?>
<!-- Created with Inkscape (http://www.inkscape.org/) -->

<svg
   xmlns:dc="http://purl.org/dc/elements/1.1/"
   xmlns:cc="http://creativecommons.org/ns#"
   xmlns:rdf="http://www.w3.org/1999/02/22-rdf-syntax-ns#"
   xmlns:svg="http://www.w3.org/2000/svg"
   xmlns="http://www.w3.org/2000/svg"
   xmlns:sodipodi="http://sodipodi.sourceforge.net/DTD/sodipodi-0.dtd"
   xmlns:inkscape="http://www.inkscape.org/namespaces/inkscape"
   id="svg3820"
   version="1.1"
   inkscape:version="0.47 r22583"
   width="248.03125"
   height="93"
   xml:space="preserve"
   sodipodi:docname="tu-logo-new.svg"><metadata
     id="metadata3826"><rdf:RDF><cc:Work
         rdf:about=""><dc:format>image/svg+xml</dc:format><dc:type
           rdf:resource="http://purl.org/dc/dcmitype/StillImage" /><dc:title></dc:title></cc:Work></rdf:RDF></metadata><defs
     id="defs3824"><inkscape:perspective
       sodipodi:type="inkscape:persp3d"
       inkscape:vp_x="0 : 0.5 : 1"
       inkscape:vp_y="0 : 1000 : 0"
       inkscape:vp_z="1 : 0.5 : 1"
       inkscape:persp3d-origin="0.5 : 0.33333333 : 1"
       id="perspective3828" /><clipPath
       clipPathUnits="userSpaceOnUse"
       id="clipPath3838"><path
         d="M 0,0 199,0 199,74 0,74 0,0 z"
         id="path3840" /></clipPath></defs><sodipodi:namedview
     pagecolor="#ffffff"
     bordercolor="#666666"
     borderopacity="1"
     objecttolerance="10"
     gridtolerance="10"
     guidetolerance="10"
     inkscape:pageopacity="0"
     inkscape:pageshadow="2"
     inkscape:window-width="1071"
     inkscape:window-height="679"
     id="namedview3822"
     showgrid="false"
     inkscape:zoom="3.0643663"
     inkscape:cx="124.09397"
     inkscape:cy="46.566134"
     inkscape:window-x="0"
     inkscape:window-y="0"
     inkscape:window-maximized="0"
     inkscape:current-layer="g3830" /><g
     id="g3830"
     inkscape:groupmode="layer"
     inkscape:label="tu-logo-new"
     transform="matrix(1.25,0,0,-1.25,0,93)"><g
       id="g3832" /><path
       d="m 0,0 198.425,0 0,74.439404 -198.425,0 L 0,0 z"
       style="fill:#be1e3c;fill-opacity:1;fill-rule:nonzero;stroke:none"
       id="path3842" /><path
       d="m 41.017,40.140935 c 0.431,0.255 0.953,0.545 1.254,0.794 0.372,0.306 0.878,0.976 0.881,1.234 -0.572,0.65 -0.476,1.292 -0.508,1.904 -0.007,0.137 -0.179,0.281 -0.419,0.165 -0.658,-0.319 -1.421,-0.554 -1.421,-0.554 0,0 -0.16,-0.95 0.052,-1.173 0.22,-0.233 0.721,-0.151 0.682,-0.491 -0.026,-0.219 -0.35,-0.595 -0.559,-0.76 -0.354,-0.28 -0.779,-0.517 -0.998,-0.62 0,0 -0.647,0.23 -1.526,0.146 -0.345,-0.032 -0.363,-0.314 -0.363,-0.314 0,0 -0.116,-0.005 -0.204,-0.043 -0.1,-0.043 -0.17,-0.141 -0.17,-0.141 0,0 0.072,-0.091 0.19,-0.137 0.078,-0.032 0.191,-0.026 0.191,-0.026 0.033,-0.127 0.152,-0.261 0.326,-0.285 0.435,-0.062 0.724,-0.016 0.958,0.041 0.133,0.033 0.225,0.014 0.261,-0.092 0.034,-0.104 -0.063,-0.186 -0.149,-0.238 -0.335,-0.197 -0.57,-0.344 -0.707,-0.512 -0.138,-0.166 -0.207,-0.387 -0.139,-0.561 -0.034,-0.054 -0.083,-0.117 -0.106,-0.207 -0.024,-0.09 -0.019,-0.18 0.007,-0.275 0.065,-0.003 0.127,0.007 0.196,0.035 0.07,0.027 0.14,0.065 0.193,0.149 0.176,-0.058 0.405,-0.018 0.571,0.226 0.139,0.202 0.304,0.563 0.352,0.708 0.047,0.147 0.11,0.179 0.194,0.162 0.074,-0.016 0.134,-0.066 0.092,-0.299 -0.03,-0.168 -0.026,-0.521 0.003,-0.682 0.105,-0.574 0.417,-0.538 0.417,-0.538 0,0 0.024,-0.101 0.088,-0.183 0.068,-0.081 0.154,-0.134 0.232,-0.156 0.035,0.078 0.064,0.196 0.052,0.292 -0.011,0.097 -0.041,0.162 -0.041,0.162 0.078,0.06 0.178,0.18 0.131,0.423 -0.086,0.417 -0.249,0.611 -0.368,0.795 -0.076,0.122 -0.049,0.216 0.025,0.27 0.074,0.051 0.184,0.036 0.281,-0.105 0.111,-0.157 0.263,-0.374 0.564,-0.518 0.203,-0.098 0.364,-0.064 0.459,0.015 0,0 0.087,-0.052 0.161,-0.076 0.074,-0.025 0.158,-0.035 0.245,-0.025 -0.013,0.083 -0.037,0.164 -0.07,0.24 -0.035,0.073 -0.072,0.119 -0.129,0.172 0.015,0.112 -0.011,0.325 -0.104,0.42 -0.331,0.334 -1.077,0.658 -1.077,0.658"
       style="fill:#ffffff;fill-opacity:1;fill-rule:evenodd;stroke:none"
       id="path3844" /><path
       d="m 37.624,53.832935 c 0,0 0.492,-0.651 0.771,-0.453 0.222,0.159 0.103,0.419 -0.068,0.598 -0.232,0.245 -0.475,0.066 -0.703,-0.145 z m 9.708,-15.109 c -0.09,-0.009 -0.174,0 -0.247,0.024 -0.074,0.027 -0.161,0.078 -0.161,0.078 -0.096,-0.081 -0.256,-0.114 -0.46,-0.015 -0.3,0.144 -0.452,0.36 -0.565,0.519 -0.097,0.139 -0.207,0.156 -0.281,0.103 -0.074,-0.054 -0.1,-0.148 -0.024,-0.27 0.118,-0.184 0.282,-0.377 0.368,-0.796 0.049,-0.241 -0.055,-0.363 -0.131,-0.421 0,0 0.03,-0.068 0.042,-0.164 0.012,-0.096 -0.019,-0.213 -0.052,-0.292 -0.08,0.022 -0.167,0.076 -0.232,0.157 -0.067,0.081 -0.089,0.182 -0.089,0.182 0,0 -0.313,-0.036 -0.417,0.538 -0.03,0.162 -0.033,0.516 -0.003,0.684 0.042,0.231 -0.018,0.282 -0.093,0.298 -0.085,0.019 -0.147,-0.015 -0.195,-0.16 -0.047,-0.147 -0.213,-0.507 -0.352,-0.711 -0.167,-0.243 -0.396,-0.284 -0.57,-0.226 -0.054,-0.084 -0.125,-0.122 -0.194,-0.149 -0.071,-0.027 -0.132,-0.038 -0.196,-0.034 -0.027,0.096 -0.033,0.186 -0.008,0.274 0.023,0.09 0.072,0.153 0.105,0.207 -0.067,0.175 0.002,0.397 0.141,0.564 0.137,0.167 0.372,0.313 0.708,0.511 0.085,0.051 0.183,0.134 0.149,0.239 -0.036,0.106 -0.129,0.125 -0.262,0.091 -0.233,-0.057 -0.523,-0.102 -0.959,-0.042 -0.174,0.025 -0.294,0.159 -0.328,0.287 0,0 -0.111,-0.005 -0.19,0.026 -0.117,0.048 -0.189,0.138 -0.189,0.138 0,0 0.069,0.096 0.169,0.14 0.088,0.038 0.205,0.043 0.205,0.043 0,0 0.015,0.258 0.358,0.307 0.668,0.092 1.301,-0.131 1.51,-0.193 0.17,0.388 0.391,1.407 0.291,1.99 -0.105,0.605 -0.902,0.439 -1.184,1.004 -0.353,0.707 -0.275,1.778 -0.759,1.87 -0.796,0.151 -0.152,-0.474 -2.958,-1.162 -0.859,-0.21 -1.53,-0.09 -2.008,-0.583 -0.188,-0.195 -0.515,-1.098 -0.972,-1.684 -0.805,-1.032 -1.412,-1.331 -1.412,-1.331 0.115,-0.049 0.558,-0.251 0.803,-0.547 0.086,-0.101 0.12,-0.307 0.105,-0.421 0.057,-0.051 0.094,-0.097 0.127,-0.172 0.035,-0.074 0.058,-0.156 0.074,-0.24 -0.09,-0.008 -0.174,0 -0.247,0.025 -0.074,0.027 -0.161,0.079 -0.161,0.079 -0.096,-0.081 -0.256,-0.115 -0.46,-0.018 -0.3,0.146 -0.453,0.362 -0.565,0.521 -0.097,0.139 -0.207,0.156 -0.281,0.103 -0.074,-0.053 -0.102,-0.147 -0.024,-0.27 0.117,-0.184 0.282,-0.377 0.368,-0.795 0.049,-0.243 -0.055,-0.364 -0.131,-0.422 0,0 0.029,-0.068 0.041,-0.164 0.011,-0.096 -0.017,-0.214 -0.053,-0.293 -0.078,0.022 -0.165,0.077 -0.231,0.158 -0.065,0.081 -0.09,0.182 -0.09,0.182 0,0 -0.311,-0.036 -0.417,0.539 -0.028,0.161 -0.033,0.515 -0.003,0.682 0.042,0.233 -0.017,0.283 -0.093,0.299 -0.084,0.018 -0.146,-0.015 -0.193,-0.16 -0.048,-0.147 -0.213,-0.509 -0.352,-0.711 -0.167,-0.243 -0.397,-0.283 -0.572,-0.226 -0.053,-0.084 -0.123,-0.122 -0.192,-0.149 -0.071,-0.027 -0.132,-0.039 -0.197,-0.036 -0.026,0.097 -0.032,0.187 -0.009,0.276 0.025,0.09 0.074,0.153 0.107,0.207 -0.069,0.175 10e-4,0.397 0.139,0.564 0.14,0.166 0.374,0.314 0.708,0.511 0.087,0.051 0.183,0.134 0.149,0.24 -0.035,0.105 -0.127,0.123 -0.26,0.09 -0.234,-0.055 -0.525,-0.103 -0.96,-0.041 -0.175,0.024 -0.293,0.159 -0.328,0.287 0,0 -0.111,-0.006 -0.19,0.026 -0.117,0.046 -0.189,0.137 -0.189,0.137 0,0 0.069,0.097 0.169,0.14 0.089,0.038 0.204,0.044 0.204,0.044 0,0 0.069,0.273 0.394,0.316 0.881,0.118 1.643,-0.194 1.643,-0.194 0,0 1.066,0.71 1.399,1.194 0.264,0.382 0.479,0.839 0.551,1.251 0.09,0.508 -0.055,0.559 -0.211,0.678 -0.216,0.16 -0.561,0.381 -0.987,0.883 -0.245,0.287 -0.566,0.996 -0.577,1.693 -0.342,0.301 -0.788,0.82 -1.103,1.232 0.009,-0.185 0.027,-0.555 -0.127,-0.956 -0.047,-0.124 -0.235,-0.229 -0.346,-0.261 -0.026,-0.072 -0.054,-0.124 -0.11,-0.184 -0.055,-0.061 -0.121,-0.114 -0.192,-0.161 -0.042,0.079 -0.068,0.159 -0.073,0.237 -0.006,0.079 0.009,0.178 0.009,0.178 -0.111,0.057 -0.206,0.192 -0.195,0.417 0.017,0.334 0.156,0.558 0.258,0.723 0.09,0.145 0.063,0.252 -0.015,0.3 -0.078,0.048 -0.177,0.034 -0.256,-0.083 -0.126,-0.181 -0.239,-0.408 -0.59,-0.65 -0.205,-0.14 -0.355,-0.092 -0.44,-0.044 0,0 -0.051,-0.054 -0.135,-0.102 -0.084,-0.048 -0.204,-0.068 -0.289,-0.066 -0.011,0.081 0.005,0.18 0.054,0.275 0.049,0.093 0.134,0.153 0.134,0.153 0,0 -0.156,0.272 0.332,0.593 0.136,0.09 0.461,0.232 0.626,0.272 0.231,0.051 0.254,0.126 0.24,0.201 -0.016,0.085 -0.07,0.128 -0.223,0.115 -0.154,-0.013 -0.551,-10e-4 -0.792,0.047 -0.29,0.057 -0.416,0.255 -0.432,0.436 -0.098,0.018 -0.16,0.067 -0.212,0.12 -0.053,0.055 -0.087,0.108 -0.11,0.168 0.079,0.063 0.159,0.102 0.251,0.115 0.092,0.014 0.169,-0.007 0.233,-0.017 0.133,0.131 0.364,0.153 0.573,0.091 0.206,-0.061 0.433,-0.219 0.746,-0.45 0.081,-0.06 0.196,-0.117 0.278,-0.045 0.084,0.075 0.066,0.166 -0.017,0.276 -0.143,0.193 -0.299,0.442 -0.412,0.867 -0.047,0.171 0.031,0.333 0.134,0.413 0,0 -0.048,0.101 -0.049,0.185 -0.003,0.127 0.051,0.229 0.051,0.229 0,0 0.118,-0.026 0.197,-0.102 0.069,-0.066 0.12,-0.171 0.12,-0.171 0,0 0.329,0.069 0.493,-0.235 0.319,-0.59 0.261,-1.059 0.227,-1.248 0.243,-0.455 0.489,-0.672 0.78,-0.952 0.168,-0.16 0.442,-0.321 0.761,-0.476 0.207,0.328 0.496,0.639 0.859,0.995 0.428,0.421 0.732,0.604 1.05,0.896 0.381,0.35 0.571,0.706 0.571,0.706 0,0 -0.652,0.196 -1.337,-0.015 -0.076,0.125 -0.22,0.392 -0.094,0.563 0.512,0.209 1.272,0.175 1.616,0.071 0.115,0.177 0.348,0.618 0.072,0.855 -0.354,0.304 -1.249,0.373 -1.891,0.039 -0.158,0.085 -0.382,0.396 -0.231,0.734 -0.348,0.377 -0.119,0.503 0.004,0.554 0.402,0.174 0.732,0.111 1.104,0.127 0.006,0.15 0.005,0.233 0.075,0.409 0.173,0.425 1.282,0.291 1.699,0.294 0.286,0.002 0.528,0.055 0.773,0.103 0.331,0.07 0.349,-0.261 0.262,-0.393 l -0.221,-0.293 c 0.334,-0.135 0.678,-0.337 0.804,-0.7 0.095,-0.277 0.023,-0.592 0.095,-0.844 0.081,-0.283 0.229,-0.38 0.358,-0.616 0.201,-0.369 0.24,-0.652 0.287,-1.044 0.04,-0.336 -0.29,-0.34 -0.417,-0.242 -0.07,0.054 -0.272,0.318 -0.491,0.291 -0.139,-0.015 -0.247,-0.215 -0.301,-0.359 0,0 0.313,-0.56 0.415,-1.042 0.087,-0.41 0.05,-0.746 0.006,-1.082 -0.04,-0.335 -0.384,-0.245 -0.469,-0.114 -0.066,0.103 -0.174,0.366 -0.395,0.399 -0.235,0.031 -0.44,-0.224 -0.468,-0.483 -0.03,-0.282 0,-0.526 0.154,-0.75 0.679,-0.994 3.783,0.892 5.128,-0.177 0.083,0.36 0.123,0.744 0.048,1.069 -0.164,0.717 -1.4,1.06 -1.984,1.878 l 0,0.003 c -0.113,0.164 -0.207,0.349 -0.255,0.557 -0.225,0.954 0.414,2.285 0.745,2.884 -0.258,0.407 -0.139,1.213 0.008,1.564 0.174,0.425 0.316,0.639 0.522,0.925 0.207,0.286 0.721,0.252 0.721,0.078 0,0 -0.598,-0.693 -0.373,-0.935 0.201,-0.217 1.3,0.54 0.502,-1.143 -0.288,-0.601 -0.665,-0.787 -0.978,-0.742 -0.328,-0.652 -0.733,-1.674 -0.541,-2.437 0.078,-0.31 0.276,-0.544 0.525,-0.751 l 0.003,0 c 0.627,-0.519 1.581,-0.861 1.778,-1.801 0.114,-0.558 -0.05,-1.301 -0.214,-1.836 0.238,-0.542 0.249,-1.136 0.393,-1.646 0.072,-0.201 0.219,-0.525 0.459,-0.498 0.217,0.023 0.331,0.246 0.417,0.375 0.11,0.166 0.41,0.196 0.459,-0.138 0.051,-0.335 0.175,-0.661 0.175,-1.023 -0.004,-1.447 -0.471,-2.587 -0.825,-3.477 0,0 0.415,-0.103 0.984,-0.492 0.403,-0.275 0.287,-0.518 0.272,-0.631 0.056,-0.052 0.093,-0.099 0.128,-0.172 0.033,-0.075 0.057,-0.157 0.072,-0.24"
       style="fill:#ffffff;fill-opacity:1;fill-rule:evenodd;stroke:none"
       id="path3846" /><path
       d="m 34.521,51.851935 c 0.809,-0.341 1.81,0.185 1.809,0.297 -1.24,-0.183 -1.701,0.17 -1.405,0.781 -0.889,-0.105 -0.815,-0.905 -0.404,-1.078"
       style="fill:#ffffff;fill-opacity:1;fill-rule:evenodd;stroke:none"
       id="path3848" /><path
       d="m 41.017,21.128935 c 0.431,0.255 0.953,0.545 1.254,0.794 0.372,0.305 0.878,0.975 0.881,1.233 -0.572,0.65 -0.476,1.293 -0.508,1.905 -0.007,0.136 -0.179,0.281 -0.419,0.163 -0.658,-0.317 -1.421,-0.553 -1.421,-0.553 0,0 -0.16,-0.95 0.052,-1.173 0.22,-0.233 0.721,-0.151 0.682,-0.49 -0.026,-0.219 -0.35,-0.596 -0.559,-0.761 -0.354,-0.28 -0.779,-0.516 -0.998,-0.62 0,0 -0.647,0.23 -1.526,0.147 -0.345,-0.032 -0.363,-0.314 -0.363,-0.314 0,0 -0.116,-0.006 -0.204,-0.043 -0.1,-0.044 -0.17,-0.141 -0.17,-0.141 0,0 0.072,-0.092 0.189,-0.138 0.079,-0.032 0.192,-0.026 0.192,-0.026 0.033,-0.127 0.152,-0.26 0.326,-0.284 0.435,-0.063 0.724,-0.016 0.958,0.04 0.133,0.033 0.225,0.015 0.261,-0.091 0.034,-0.104 -0.063,-0.186 -0.149,-0.239 -0.335,-0.197 -0.569,-0.343 -0.707,-0.511 -0.138,-0.167 -0.207,-0.389 -0.139,-0.562 -0.033,-0.053 -0.083,-0.118 -0.106,-0.206 -0.024,-0.09 -0.019,-0.18 0.007,-0.276 0.066,-0.003 0.127,0.008 0.196,0.035 0.07,0.028 0.14,0.065 0.193,0.149 0.176,-0.058 0.405,-0.017 0.572,0.226 0.138,0.203 0.302,0.563 0.351,0.709 0.047,0.147 0.11,0.178 0.194,0.16 0.074,-0.015 0.134,-0.064 0.092,-0.297 -0.03,-0.168 -0.026,-0.522 0.003,-0.682 0.105,-0.575 0.417,-0.539 0.417,-0.539 0,0 0.024,-0.101 0.088,-0.182 0.067,-0.081 0.154,-0.135 0.232,-0.156 0.035,0.077 0.064,0.195 0.052,0.292 -0.011,0.096 -0.041,0.162 -0.041,0.162 0.078,0.06 0.178,0.18 0.131,0.423 -0.086,0.417 -0.249,0.61 -0.368,0.795 -0.076,0.121 -0.049,0.215 0.025,0.268 0.074,0.053 0.184,0.038 0.281,-0.103 0.111,-0.158 0.263,-0.374 0.564,-0.519 0.203,-0.097 0.364,-0.063 0.459,0.016 0,0 0.087,-0.052 0.161,-0.076 0.074,-0.026 0.158,-0.035 0.245,-0.026 -0.013,0.083 -0.037,0.165 -0.07,0.24 -0.035,0.074 -0.072,0.12 -0.129,0.172 0.014,0.113 -0.011,0.326 -0.104,0.419 -0.331,0.335 -1.077,0.66 -1.077,0.66"
       style="fill:#ffffff;fill-opacity:1;fill-rule:evenodd;stroke:none"
       id="path3850" /><path
       d="m 38.395,34.366935 c -0.279,-0.197 -0.771,0.454 -0.771,0.454 0.228,0.211 0.471,0.389 0.703,0.145 0.171,-0.18 0.289,-0.44 0.068,-0.599 z m 8.865,-14.415 c -0.035,0.073 -0.072,0.119 -0.128,0.172 0.015,0.113 0.131,0.355 -0.272,0.63 -0.568,0.388 -0.984,0.492 -0.984,0.492 0.354,0.89 0.82,2.03 0.825,3.476 0,0.364 -0.124,0.69 -0.175,1.025 -0.049,0.334 -0.349,0.304 -0.459,0.137 -0.086,-0.129 -0.2,-0.351 -0.418,-0.375 -0.239,-0.027 -0.386,0.296 -0.458,0.498 -0.113,0.399 -0.157,0.845 -0.275,1.284 0.419,0.094 0.761,0.313 1.059,0.565 0.545,0.465 0.501,1.185 0.207,1.761 -0.241,0.461 -0.541,0.645 -1.996,1.185 -0.581,0.215 -1.001,0.466 -1.3,0.794 -0.112,0.128 -0.225,0.294 -0.301,0.451 -0.15,0.306 -0.036,0.658 0.219,0.892 0.06,0.054 0.186,0.144 0.334,0.245 0.447,-0.325 1.667,-0.153 2.14,0.014 0.547,0.193 0.967,0.441 1.356,0.663 0.386,0.229 0.324,0.683 0.115,0.681 0,0 -1.424,-0.601 -1.667,-0.365 -0.221,0.215 0.277,0.985 -1.233,0.319 -0.545,-0.24 -0.948,-0.57 -0.922,-0.887 -0.529,-0.285 -1.037,-0.749 -0.961,-1.371 0.022,-0.207 0.124,-0.466 0.264,-0.675 l 0.006,0 c 0.413,-0.591 1.238,-1.035 2.136,-1.328 0.861,-0.282 1.194,-0.438 1.344,-1.011 0.197,-0.749 -0.209,-1.207 -1.031,-1.334 -0.1,0.184 -0.217,0.337 -0.323,0.446 -1.163,1.2 -4.52,-0.812 -5.199,0.182 -0.154,0.223 -0.184,0.468 -0.154,0.749 0.027,0.26 0.233,0.515 0.468,0.483 0.221,-0.033 0.329,-0.295 0.395,-0.398 0.085,-0.132 0.428,-0.221 0.469,0.113 0.044,0.336 0.081,0.672 -0.006,1.083 -0.102,0.482 -0.415,1.041 -0.415,1.041 0.054,0.144 0.162,0.344 0.301,0.36 0.219,0.025 0.421,-0.237 0.491,-0.291 0.127,-0.099 0.457,-0.094 0.416,0.242 -0.046,0.392 -0.085,0.675 -0.286,1.043 -0.129,0.236 -0.277,0.333 -0.358,0.616 -0.072,0.251 0,0.567 -0.095,0.845 -0.126,0.361 -0.471,0.564 -0.804,0.699 l 0.221,0.292 c 0.087,0.134 0.069,0.466 -0.262,0.394 -0.245,-0.048 -0.487,-0.101 -0.773,-0.102 -0.416,-0.003 -1.526,0.132 -1.699,-0.295 -0.07,-0.176 -0.069,-0.258 -0.075,-0.408 -0.372,-0.017 -0.702,0.047 -1.104,-0.128 -0.123,-0.051 -0.352,-0.178 -0.004,-0.554 -0.151,-0.338 0.073,-0.648 0.231,-0.734 0.642,0.335 1.537,0.266 1.891,-0.039 0.276,-0.237 0.043,-0.677 -0.072,-0.855 -0.344,0.104 -1.104,0.139 -1.616,-0.071 -0.126,-0.171 0.017,-0.437 0.094,-0.563 0.685,0.211 1.337,0.015 1.337,0.015 0,0 -0.19,-0.356 -0.571,-0.707 -0.319,-0.292 -0.622,-0.473 -1.05,-0.894 -0.414,-0.407 -0.732,-0.754 -0.942,-1.136 -0.528,0.127 -1.024,0.278 -1.299,0.467 -0.335,0.226 -0.614,0.398 -0.929,0.807 10e-4,0.191 -0.02,0.664 -0.433,1.192 -0.213,0.273 -0.526,0.15 -0.526,0.15 0,0 -0.068,0.094 -0.147,0.149 -0.089,0.06 -0.21,0.066 -0.21,0.066 0,0 -0.037,-0.108 -0.012,-0.233 0.014,-0.083 0.079,-0.175 0.079,-0.175 -0.088,-0.096 -0.138,-0.269 -0.064,-0.429 0.183,-0.401 0.378,-0.62 0.552,-0.786 0.1,-0.095 0.134,-0.181 0.064,-0.269 -0.07,-0.085 -0.192,-0.047 -0.282,-0.003 -0.347,0.176 -0.598,0.294 -0.812,0.319 -0.216,0.026 -0.44,-0.033 -0.549,-0.186 -0.064,-0.001 -0.144,0.008 -0.232,-0.022 -0.088,-0.027 -0.162,-0.08 -0.228,-0.154 0.032,-0.057 0.074,-0.102 0.136,-0.147 0.06,-0.045 0.13,-0.083 0.229,-0.084 0.046,-0.177 0.204,-0.349 0.498,-0.358 0.247,-0.007 0.639,0.049 0.789,0.087 0.149,0.038 0.209,0.005 0.24,-0.077 0.026,-0.072 0.015,-0.149 -0.202,-0.239 -0.158,-0.066 -0.454,-0.26 -0.573,-0.371 -0.428,-0.399 -0.229,-0.641 -0.229,-0.641 0,0 -0.073,-0.074 -0.106,-0.174 -0.032,-0.101 -0.031,-0.201 -0.007,-0.28 0.084,0.013 0.2,0.053 0.274,0.115 0.075,0.06 0.116,0.122 0.116,0.122 0.091,-0.033 0.248,-0.055 0.426,0.117 0.306,0.298 0.379,0.541 0.474,0.74 0.058,0.129 0.153,0.159 0.238,0.124 0.085,-0.034 0.13,-0.134 0.064,-0.293 -0.072,-0.179 -0.172,-0.423 -0.133,-0.755 0.028,-0.224 0.143,-0.341 0.262,-0.379 0,0 0.003,-0.1 0.022,-0.178 0.017,-0.076 0.056,-0.15 0.111,-0.22 0.062,0.057 0.119,0.121 0.163,0.191 0.044,0.067 0.064,0.124 0.077,0.199 0.104,0.05 0.272,0.185 0.298,0.315 0.085,0.422 0.005,0.783 -0.036,0.964 0.476,-0.441 1.176,-1.013 1.552,-1.166 0.02,-0.009 0.042,-0.018 0.062,-0.026 0.066,-0.621 0.344,-1.214 0.564,-1.471 0.426,-0.503 0.771,-0.723 0.987,-0.884 0.156,-0.118 0.301,-0.169 0.211,-0.679 -0.072,-0.411 -0.287,-0.867 -0.551,-1.25 -0.333,-0.484 -1.399,-1.193 -1.399,-1.193 0,0 -0.762,0.311 -1.643,0.193 -0.325,-0.043 -0.394,-0.316 -0.394,-0.316 0,0 -0.115,-0.006 -0.204,-0.043 -0.1,-0.044 -0.17,-0.141 -0.17,-0.141 0,0 0.073,-0.09 0.19,-0.137 0.079,-0.033 0.19,-0.027 0.19,-0.027 0.034,-0.127 0.153,-0.261 0.328,-0.286 0.435,-0.062 0.726,-0.014 0.96,0.042 0.132,0.031 0.225,0.015 0.26,-0.092 0.034,-0.105 -0.062,-0.187 -0.149,-0.238 -0.334,-0.198 -0.569,-0.345 -0.708,-0.512 -0.138,-0.167 -0.208,-0.388 -0.139,-0.564 -0.033,-0.053 -0.082,-0.117 -0.107,-0.206 -0.023,-0.09 -0.017,-0.18 0.009,-0.276 0.065,-0.003 0.126,0.008 0.197,0.036 0.069,0.027 0.139,0.065 0.192,0.149 0.175,-0.058 0.405,-0.017 0.572,0.225 0.139,0.203 0.304,0.565 0.352,0.712 0.048,0.145 0.109,0.177 0.193,0.16 0.076,-0.016 0.135,-0.067 0.093,-0.3 -0.03,-0.167 -0.025,-0.521 0.003,-0.682 0.106,-0.575 0.417,-0.538 0.417,-0.538 0,0 0.025,-0.101 0.09,-0.182 0.066,-0.081 0.153,-0.137 0.231,-0.159 0.036,0.079 0.064,0.198 0.052,0.292 -0.011,0.098 -0.04,0.165 -0.04,0.165 0.076,0.059 0.18,0.179 0.13,0.422 -0.085,0.418 -0.25,0.611 -0.367,0.796 -0.078,0.122 -0.05,0.216 0.024,0.27 0.074,0.052 0.184,0.036 0.281,-0.103 0.112,-0.159 0.265,-0.375 0.565,-0.521 0.204,-0.098 0.364,-0.064 0.46,0.017 0,0 0.087,-0.052 0.161,-0.078 0.073,-0.026 0.157,-0.033 0.247,-0.026 -0.016,0.084 -0.039,0.167 -0.074,0.24 -0.033,0.075 -0.07,0.122 -0.127,0.172 0.015,0.114 -0.019,0.32 -0.105,0.422 -0.245,0.296 -0.688,0.497 -0.803,0.547 0,0 0.607,0.298 1.413,1.331 0.456,0.586 0.783,1.489 0.971,1.682 0.478,0.494 1.149,0.374 2.008,0.585 2.806,0.688 2.162,1.313 2.958,1.161 0.484,-0.091 0.406,-1.164 0.759,-1.87 0.282,-0.564 1.079,-0.398 1.184,-1.005 0.1,-0.583 -0.121,-1.6 -0.291,-1.989 -0.209,0.063 -0.842,0.284 -1.51,0.193 -0.343,-0.048 -0.358,-0.306 -0.358,-0.306 0,0 -0.117,-0.006 -0.206,-0.043 -0.099,-0.044 -0.168,-0.141 -0.168,-0.141 0,0 0.072,-0.09 0.189,-0.137 0.079,-0.033 0.19,-0.027 0.19,-0.027 0.034,-0.127 0.154,-0.261 0.328,-0.287 0.436,-0.06 0.725,-0.015 0.959,0.043 0.133,0.033 0.226,0.015 0.262,-0.093 0.034,-0.104 -0.064,-0.186 -0.149,-0.237 -0.336,-0.198 -0.571,-0.345 -0.708,-0.513 -0.139,-0.166 -0.209,-0.387 -0.141,-0.563 -0.033,-0.053 -0.082,-0.117 -0.105,-0.207 -0.025,-0.087 -0.019,-0.178 0.008,-0.275 0.064,-0.002 0.125,0.008 0.196,0.036 0.069,0.027 0.14,0.065 0.194,0.149 0.174,-0.059 0.403,-0.018 0.57,0.225 0.139,0.205 0.306,0.565 0.352,0.711 0.048,0.146 0.11,0.179 0.195,0.161 0.075,-0.017 0.135,-0.067 0.093,-0.299 -0.03,-0.167 -0.027,-0.523 0.003,-0.683 0.104,-0.574 0.417,-0.538 0.417,-0.538 0,0 0.022,-0.101 0.089,-0.182 0.065,-0.082 0.152,-0.135 0.232,-0.157 0.033,0.078 0.064,0.196 0.052,0.292 -0.012,0.096 -0.042,0.162 -0.042,0.162 0.076,0.06 0.18,0.182 0.13,0.423 -0.085,0.418 -0.248,0.611 -0.367,0.796 -0.077,0.122 -0.05,0.216 0.024,0.27 0.074,0.051 0.184,0.036 0.281,-0.103 0.113,-0.159 0.265,-0.376 0.565,-0.52 0.204,-0.099 0.364,-0.066 0.46,0.016 0,0 0.087,-0.053 0.161,-0.078 0.073,-0.025 0.157,-0.033 0.247,-0.025 -0.015,0.083 -0.039,0.165 -0.072,0.241"
       style="fill:#ffffff;fill-opacity:1;fill-rule:evenodd;stroke:none"
       id="path3852" /><path
       d="m 34.521,32.839935 c 0.815,-0.328 1.81,0.184 1.809,0.296 -1.24,-0.183 -1.701,0.17 -1.405,0.782 -0.889,-0.106 -0.847,-0.902 -0.404,-1.078"
       style="fill:#ffffff;fill-opacity:1;fill-rule:evenodd;stroke:none"
       id="path3854" /><path
       d="m 61.159,48.326935 c -0.027,0.374 -0.285,0.558 -1.586,0.305 -1.558,-0.222 -2.361,0.397 -1.904,1.101 -1.181,-0.069 -1.231,-1.661 0.051,-1.705 1.279,-0.043 2.043,0.503 3.439,0.299"
       style="fill:#ffffff;fill-opacity:1;fill-rule:nonzero;stroke:none"
       id="path3856" /><path
       d="m 62.864,33.369935 c -0.209,0.069 -0.856,0.276 -0.856,0.276 0,0 -1.097,-1.373 -3.097,-2.062 -1.684,-0.58 -2.439,-1.072 -2.822,-1.711 -0.324,-0.542 -0.491,-1.074 -0.516,-1.405 -0.041,-0.563 0.007,-0.931 0.073,-1.377 0.07,-0.468 0.595,-0.414 0.666,-0.083 0.052,0.239 0.207,0.509 0.448,0.537 0.241,0.027 0.468,-0.239 0.468,-0.239 0,0 -0.238,-0.983 -0.981,-1.946 -0.236,-0.305 -1.298,-1.424 -1.693,-1.624 -0.492,0.227 -1.147,0.468 -1.474,0.503 -0.263,0.029 -0.671,0.049 -0.797,-0.153 -0.177,0.011 -0.354,-0.076 -0.506,-0.199 0.144,-0.179 0.41,-0.27 0.41,-0.27 0.045,-0.319 0.345,-0.469 0.7,-0.502 0.369,-0.036 0.67,-0.021 0.827,-0.01 0.162,0.012 0.258,-0.08 0.276,-0.183 0.021,-0.115 -0.051,-0.243 -0.228,-0.268 -0.918,-0.131 -1.246,-0.595 -1.218,-1.09 -0.102,-0.115 -0.248,-0.347 -0.221,-0.588 0.147,-0.002 0.434,0.051 0.58,0.188 0.601,-0.082 1.028,0.549 1.2,0.879 0.084,0.166 0.168,0.247 0.3,0.188 0.113,-0.05 0.141,-0.155 0.071,-0.343 -0.084,-0.226 -0.18,-0.524 -0.184,-0.797 -0.005,-0.427 0.161,-0.649 0.396,-0.767 0,0 0.148,-0.365 0.33,-0.448 0.112,0.173 0.096,0.49 0.096,0.49 0.207,0.113 0.311,0.465 0.267,0.79 -0.027,0.205 -0.165,0.493 -0.275,0.729 -0.07,0.149 -0.041,0.269 0.055,0.314 0.119,0.058 0.23,-0.004 0.324,-0.222 0.059,-0.136 0.226,-0.446 0.347,-0.564 0.164,-0.159 0.527,-0.377 0.788,-0.222 0,0 0.236,-0.153 0.478,-0.125 -0.004,0.205 -0.081,0.348 -0.198,0.494 0.071,0.235 0.079,0.496 -0.25,0.807 -0.272,0.258 -0.595,0.495 -0.954,0.709 0.68,0.225 1.751,1.025 2.161,1.507 0.354,0.414 0.728,1.141 0.728,1.141 0.306,-0.069 0.391,-0.407 0.411,-0.629 0.018,-0.186 0.389,-0.272 0.478,0.06 0.089,0.329 0.149,0.659 0.138,1.087 -0.007,0.279 -0.041,0.883 -0.314,1.39 0.073,0.154 0.179,0.284 0.32,0.272 0.225,-0.016 0.375,-0.283 0.436,-0.414 0.185,-0.4 0.735,-0.265 0.72,0.144 -0.011,0.341 -0.013,0.606 -0.127,1.063 -0.054,0.213 -0.294,0.657 -0.498,0.824 0.121,0.776 0.627,0.799 1.648,1.616 0.38,0.303 0.916,0.743 1.302,1.248 0.113,0.148 0.297,0.441 0.269,0.666 -0.018,0.16 -0.275,0.244 -0.502,0.319"
       style="fill:#ffffff;fill-opacity:1;fill-rule:nonzero;stroke:none"
       id="path3858" /><path
       d="m 61.223,51.014935 c 0,0 0.561,-0.909 0.99,-0.632 0.306,0.197 0.154,0.548 -0.061,0.789 -0.296,0.333 -0.624,0.111 -0.929,-0.157 z m 7.811,-16.059 c -0.179,-0.912 -0.87699,-1.51 -1.826,-1.898 0.047,-1.728 -1.01199,-2.571 -1.03,-3.174 -0.015,-0.445 0.389,-0.578 0.837,-1.184 0.43,-0.584 0.591,-1.536 0.468,-2.289 -0.09099,-0.558 -0.21499,-0.849 -0.431,-1.244 -0.21699,-0.398 -0.694,-0.237 -0.666,0.069 0.07701,0.851 -0.528,0.555 -0.528,0.555 0,0 0.023,-0.9 -0.595,-2.109 -0.37199,-0.726 -1.416,-1.683 -1.416,-1.683 0,0 0.857,-0.134 1.113,-0.245 0.415,-0.182 0.504,-0.509 0.507,-0.753 0.155,-0.105 0.281,-0.238 0.346,-0.434 -0.183,-0.072 -0.503,-0.003 -0.503,-0.003 0,0 -0.303,-0.274 -0.846,0.054 -0.19699,0.119 -0.359,0.304 -0.457,0.414 -0.14,0.156 -0.274,0.169 -0.369,0.084 -0.077,-0.068 -0.093,-0.2 0.024,-0.329 0.174,-0.191 0.401,-0.49 0.474,-0.621 0.111,-0.207 0.17101,-0.68 0.007,-0.848 0,0 0.12199,-0.343 0.06499,-0.539 -0.197,0.023 -0.471,0.356 -0.471,0.356 -0.258,0.042 -0.51,0.299 -0.581,0.596 -0.081,0.34 -0.036,0.622 -0.031,0.862 0.005,0.22 -0.052,0.325 -0.193,0.336 -0.167,0.012 -0.23,-0.098 -0.248,-0.264 -0.048,-0.438 -0.355,-1.143 -0.953,-1.242 -0.098,-0.172 -0.32,-0.296 -0.46,-0.338 -0.097,0.221 -0.027,0.486 0.036,0.627 -0.174,0.465 0.038,0.933 0.839,1.403 0.116,0.066 0.169,0.198 0.108,0.307 -0.054,0.091 -0.157,0.117 -0.297,0.07 -0.151,-0.049 -0.42,-0.123 -0.783,-0.198 -0.348,-0.072 -0.678,-0.02 -0.818,0.272 0,0 -0.28,0.008 -0.47,0.138 0.108,0.162 0.25,0.298 0.424,0.339 0.06,0.23 0.418,0.396 0.682,0.426 0.729,0.079 1.659,-0.086 1.659,-0.086 0,0 0.48,0.466 0.934,1.204 0.585,0.948 0.50101,1.989 0.50101,1.989 0,0 -0.11801,0.17 -0.31601,0.181 -0.224,0.012 -0.384,-0.212 -0.485,-0.315 -0.112,-0.115 -0.431,-0.128 -0.431,0.216 0,0.206 0.032,0.522 0.167,0.927 0.089,0.266 0.228,0.501 0.449,0.819 -0.115,0.154 -0.317,0.292 -0.447,0.255 -0.182,-0.054 -0.283,-0.193 -0.348,-0.377 -0.09,-0.248 -0.493,-0.291 -0.576,0.076 -0.076,0.334 -0.098,0.646 -0.049,1.082 0.084,0.753 0.202,1.524 1.048,2.678 0.407,0.556 1.367,1.694 1.385,2.383 0.02001,0.653 -2.188,0.729 -3.829,1.816 -1.35,0.895 -1.665,2.318 -1.665,2.318 0,0 -0.483,-0.631 -1.538,-1.264 -0.695,-0.418 -2.016,-0.731 -2.016,-0.731 0.234,-0.303 0.412,-0.663 0.516,-0.969 0.161,-0.472 0.044,-0.731 -0.13,-0.901 0.033,-0.186 -0.029,-0.388 -0.125,-0.569 -0.182,0.117 -0.299,0.379 -0.299,0.379 -0.303,-0.01 -0.461,0.17 -0.543,0.536 -0.046,0.208 -0.077,0.552 -0.073,0.7 0.006,0.233 -0.074,0.336 -0.189,0.336 -0.1,0 -0.179,-0.084 -0.189,-0.236 -0.016,-0.258 -0.063,-0.625 -0.108,-0.77 -0.071,-0.222 -0.274,-0.573 -0.51,-0.573 0,0 -0.151,-0.353 -0.335,-0.449 -0.118,0.159 -0.068,0.587 -0.068,0.587 -0.153,0.121 -0.238,0.387 -0.027,0.863 0.157,0.356 0.274,0.449 0.436,0.624 0.148,0.16 0.213,0.268 0.108,0.374 -0.082,0.086 -0.162,0.058 -0.297,-0.033 -0.31,-0.209 -1.076,-0.558 -1.564,-0.197 -0.192,-0.049 -0.382,0.043 -0.51,0.114 0.093,0.225 0.294,0.382 0.477,0.411 0.209,0.313 0.663,0.501 1.592,0.37 0.125,-0.018 0.269,-0.002 0.308,0.125 0.035,0.119 -0.002,0.229 -0.161,0.302 -0.143,0.067 -0.388,0.188 -0.694,0.398 -0.294,0.2 -0.486,0.473 -0.372,0.778 0,0 -0.189,0.206 -0.228,0.434 0.192,0.034 0.389,0.025 0.537,-0.071 0.209,0.118 0.57,0.001 0.807,-0.212 0.245,-0.219 0.605,-0.657 0.93,-1.093 0,0 1.215,0.158 2.175,1.217 0.59,0.651 0.711,1.708 0.743,2.639 0.005,0.154 -0.058,0.303 -0.185,0.36 -0.206,0.09 -0.433,-0.066 -0.562,-0.128 -0.147,-0.071 -0.453,0.027 -0.333,0.348 0.121,0.322 0.212,0.491 0.492,0.813 0.156,0.178 0.51,0.543 0.96,0.791 -0.384,0.287 -0.826,0.685 -1.229,1.08 -0.346,0.337 -0.921,1.22 -1.218,1.908 -0.065,-0.221 -0.13,-0.522 -0.211,-0.72 -0.171,-0.42 -0.384,-0.504 -0.627,-0.524 -0.095,-0.16 -0.272,-0.277 -0.462,-0.356 -0.065,0.208 0.034,0.518 0.034,0.518 -0.239,0.187 -0.191,0.478 -0.066,0.78 0.112,0.266 0.261,0.429 0.366,0.535 0.172,0.173 0.189,0.3 0.092,0.383 -0.092,0.08 -0.21,0.058 -0.313,-0.069 -0.164,-0.201 -0.452,-0.44 -0.578,-0.52 -0.198,-0.127 -0.655,-0.193 -0.834,-0.041 0,0 -0.316,-0.138 -0.517,-0.096 0.01,0.198 0.297,0.463 0.297,0.463 0.023,0.26 0.074,0.379 0.538,0.622 0.211,0.111 0.567,0.188 0.805,0.181 0.251,-0.008 0.357,0.104 0.358,0.215 0,0.133 -0.109,0.215 -0.294,0.207 -0.441,-0.02 -1.173,0.225 -1.314,0.815 -0.18,0.086 -0.266,0.277 -0.317,0.415 0.215,0.113 0.484,0.06 0.629,0.008 0.451,0.205 0.933,0.026 1.456,-0.74 0.137,-0.199 0.489,-0.091 0.365,0.216 -0.059,0.147 -0.153,0.41 -0.253,0.768 -0.097,0.341 -0.067,0.674 0.215,0.835 0,0 -0.011,0.279 0.105,0.477 0.167,-0.097 0.313,-0.228 0.366,-0.398 0.236,-0.043 0.447,-0.395 0.51,-0.669 0.063,-0.284 0.137,-0.797 0.016,-1.435 0.176,-0.621 0.591,-1.146 0.895,-1.48 0.548,-0.604 1.654,-1.297 2.426,-1.744 0.087,0.095 0.18,0.191 0.28,0.288 0.083,0.079 0.065,0.214 0.011,0.306 -0.111,0.196 -0.388,0.201 -0.529,0.228 -0.16,0.028 -0.343,0.277 -0.064,0.477 0.278,0.2 0.598,0.309 1.014,0.404 0.279,0.064 0.812,0.14 1.42,-0.02 0,0 0.343,0.4 0.176,0.529 -0.626,0.483 -1.824,0.183 -1.824,0.183 -0.47,0.641 -0.055,0.811 0.607,0.833 0.544,0.021 1.148,-0.07 1.785,-0.301 0.424,0.339 0.294,1.338 -0.293,1.615 -1.291,0.61 -2.285,-0.014 -2.285,-0.014 -0.288,0.044 -0.554,0.185 -0.692,0.496 -0.157,0.353 -0.051,0.742 -0.051,0.742 -0.297,0.211 -0.288,0.873 1.654,0.735 0,0 -0.201,0.547 -0.051,0.987 0.198,0.583 2.311,0.274 2.796,0.383 0.122,0.027 0.358,0.11 0.479,0.145 0.301,0.091 0.403,-0.202 0.305,-0.373 -0.163,-0.286 -0.218,-0.652 -0.218,-0.652 0,0 0.79,-0.206 1.47901,-1.049 0.37,-0.454 0.51,-1.174 0.578,-1.509 0.069,-0.337 -0.275,-0.365 -0.4,-0.266 -0.113,0.091 -0.298,0.294 -0.52,0.252 -0.131,-0.025 -0.279,-0.252 -0.32399,-0.392 0.76699,-0.409 1.04699,-1.338 1.109,-1.726 0.06699,-0.419 0.04899,-0.755 0.005,-1.095 -0.043,-0.338 -0.37899,-0.255 -0.466,-0.119 -0.077,0.122 -0.186,0.374 -0.408,0.406 -0.203,0.028 -0.342,-0.138 -0.431,-0.328 0.30101,-0.456 0.409,-0.994 0.44101,-1.258 0.05199,-0.425 0.02299,-0.759 -0.03301,-1.096 -0.056,-0.338 -0.389,-0.242 -0.47,-0.103 -0.073,0.125 -0.173,0.38 -0.394,0.419 -0.212,0.039 -0.389,-0.209 -0.482,-0.4 0.467,-0.472 0.63001,-1.169 0.68,-1.482 0.067,-0.421 0.05,-0.756 0.007,-1.096 -0.04399,-0.34 -0.391,-0.316 -0.467,-0.12 -0.066,0.168 -0.165,0.394 -0.386,0.427 -0.127,0.019 -0.313,-0.111 -0.39,-0.203 -0.078,-0.467 0.022,-0.89 0.105,-1.306 0.142,-0.712 0.521,-1.397 1.42,-2.049 1,-0.728 2.238,-1.914 2.64501,-3.354 0.85899,0.381 1.641,1.2 0.641,2.574 -0.97001,1.329 -1.73201,1.752 -2.14,3.308 -0.238,0.908 -0.08201,1.859 0.694,2.853 -0.10801,0.159 -0.15701,0.366 -0.17201,0.595 -0.026,0.399 0.016,0.962 0.396,1.597 0.342,0.575 0.962,1.334 1.884,1.75 0.231,-0.135 0.249,-0.576 0.19801,-0.674 -0.278,-0.536 -1.34301,-1.303 -1.35601,-1.62 -0.008,-0.178 0.418,-0.444 0.571,-0.393 0.289,0.096 0.61701,0.877 0.737,1.036 0.098,0.13 0.459,0.129 0.432,-0.213 -0.028,-0.342 -0.082,-0.673 -0.234,-1.071 -0.15199,-0.392 -0.66,-1.166 -1.681,-1.315 -0.10999,-0.015 -0.21,-0.013 -0.3,10e-4 -0.607,-0.832 -0.514,-1.677 -0.429,-2.163 0.179,-1.008 0.85601,-1.572 1.739,-2.707 0.795,-1.021 1.203,-1.599 0.982,-2.718"
       style="fill:#ffffff;fill-opacity:1;fill-rule:nonzero;stroke:none"
       id="path3860" /><path
       d="m 53.388,57.429935 c -0.303,0.466 -0.705,0.924 -1.039,1.408 -0.37,0.536 -0.307,1.225 0.344,1.351 0.201,0.038 0.47,-0.046 0.662,-0.243 0.018,-0.018 0.045,-0.018 0.066,0 0.193,0.197 0.463,0.281 0.662,0.243 0.652,-0.126 0.715,-0.815 0.345,-1.351 -0.333,-0.484 -0.736,-0.942 -1.04,-1.408"
       style="fill:#ffffff;fill-opacity:1;fill-rule:nonzero;stroke:none"
       id="path3862" /><path
       d="m 53.389,12.644935 c -0.304,0.467 -0.706,0.924 -1.04,1.408 -0.37,0.538 -0.308,1.225 0.344,1.35 0.2,0.039 0.47,-0.045 0.662,-0.242 0.018,-0.017 0.045,-0.017 0.066,0 0.193,0.197 0.463,0.281 0.662,0.242 0.652,-0.125 0.715,-0.812 0.345,-1.35 -0.333,-0.484 -0.736,-0.941 -1.039,-1.408"
       style="fill:#ffffff;fill-opacity:1;fill-rule:nonzero;stroke:none"
       id="path3864" /><path
       d="m 58.164,14.848935 c -0.304,0.466 -0.706,0.924 -1.04,1.409 -0.369,0.537 -0.307,1.224 0.345,1.349 0.2,0.039 0.469,-0.044 0.663,-0.242 0.016,-0.017 0.045,-0.017 0.064,0 0.194,0.198 0.463,0.281 0.663,0.242 0.652,-0.125 0.714,-0.812 0.345,-1.349 -0.334,-0.485 -0.736,-0.943 -1.04,-1.409"
       style="fill:#ffffff;fill-opacity:1;fill-rule:nonzero;stroke:none"
       id="path3866" /><path
       d="m 53.389,40.003935 c -0.304,0.467 -0.706,0.925 -1.04,1.409 -0.37,0.536 -0.307,1.224 0.344,1.351 0.2,0.038 0.469,-0.046 0.662,-0.243 0.018,-0.018 0.046,-0.018 0.066,0 0.193,0.197 0.463,0.281 0.662,0.243 0.652,-0.127 0.715,-0.815 0.345,-1.351 -0.334,-0.484 -0.736,-0.942 -1.039,-1.409"
       style="fill:#ffffff;fill-opacity:1;fill-rule:nonzero;stroke:none"
       id="path3868" /><path
       d="m 58.164,54.897935 c -0.304,0.466 -0.706,0.925 -1.04,1.408 -0.369,0.538 -0.307,1.225 0.345,1.35 0.2,0.039 0.469,-0.044 0.662,-0.242 0.017,-0.017 0.046,-0.017 0.065,0 0.194,0.198 0.463,0.281 0.663,0.242 0.652,-0.125 0.714,-0.812 0.344,-1.35 -0.333,-0.483 -0.735,-0.942 -1.039,-1.408"
       style="fill:#ffffff;fill-opacity:1;fill-rule:nonzero;stroke:none"
       id="path3870" /><path
       d="m 58.5,32.248935 c -0.304,0.466 -0.706,0.924 -1.04,1.408 -0.37,0.536 -0.307,1.224 0.345,1.35 0.199,0.039 0.469,-0.045 0.662,-0.243 0.017,-0.017 0.045,-0.017 0.065,0 0.194,0.198 0.463,0.282 0.662,0.243 0.653,-0.126 0.715,-0.814 0.345,-1.35 -0.333,-0.484 -0.735,-0.942 -1.039,-1.408"
       style="fill:#ffffff;fill-opacity:1;fill-rule:nonzero;stroke:none"
       id="path3872" /><path
       d="m 49.404,60.533935 c 0,0 0.256,-0.026 0.388,-0.075 l 0,-47.824 c -0.266,-0.086 -0.393,-0.086 -0.393,-0.086 0,0 -0.117,0.006 -0.39,0.086 l 0,47.824 c 0.125,0.046 0.395,0.075 0.395,0.075"
       style="fill:#ffffff;fill-opacity:1;fill-rule:nonzero;stroke:none"
       id="path3874" /><path
       d="m 27.414,26.165935 c -0.05,0.157 -0.107,0.311 -0.157,0.468 l -1.176,-0.373 0.123,-0.388 c 0.109,-0.347 0.485,-0.418 0.789,-0.322 0.288,0.091 0.528,0.277 0.421,0.615 z m -1.661,-0.499 -0.141,0.445 -1.16,-0.367 c -0.229,-0.073 -0.225,-0.172 -0.124,-0.494 0.129,-0.405 0.442,-0.678 0.935,-0.521 0.403,0.127 0.621,0.524 0.49,0.937 z m -1.767,-0.906 c -0.136,0.429 -0.253,0.855 -0.389,1.285 l -0.436,1.315 0.403,0.128 0.289,-0.708 3.034,0.962 -0.274,0.776 0.419,0.133 c 0.318,-0.799 0.628,-1.608 0.888,-2.426 0.282,-0.891 0.078,-1.646 -0.538,-1.841 -0.395,-0.125 -0.801,0.099 -1.059,0.399 0.023,-0.528 -0.168,-1.07 -0.71,-1.242 -0.823,-0.261 -1.407,0.526 -1.627,1.219"
       style="fill:#ffffff;fill-opacity:1;fill-rule:nonzero;stroke:none"
       id="path3876" /><path
       d="m 29.484,21.266935 -0.112,0.214 -1.412,-0.743 0.093,-0.177 c 0.234,-0.444 0.698,-0.473 1.072,-0.276 0.328,0.172 0.598,0.529 0.359,0.982 z m -2.552,-4.016 -0.241,0.734 c -0.215,0.63 0.805,1.931 1.103,2.44 l -0.093,0.176 -1.182,-0.623 0.184,-0.48 -0.382,-0.2 -0.498,1 -0.607,1.098 0.381,0.201 0.377,-0.585 2.83,1.492 -0.407,0.716 0.39,0.205 c 0.229,-0.379 0.51,-0.858 0.686,-1.137 0.064,-0.103 0.393,-0.653 0.503,-0.861 0.67,-1.272 0.447,-1.868 -0.186,-2.202 -0.564,-0.297 -1.046,-0.198 -1.432,0.294 -0.088,-0.165 -1.088,-1.65 -1.083,-1.774 0.005,-0.193 0.013,-0.19 0.083,-0.417 l -0.426,-0.077"
       style="fill:#ffffff;fill-opacity:1;fill-rule:nonzero;stroke:none"
       id="path3878" /><path
       d="m 31.812,16.752935 -1.298,-0.392 0.583,-0.732 0.715,1.124 z m -1.395,-3.359 -0.86,1.053 0.33,0.264 0.413,-0.436 0.529,0.887 -0.847,1.063 -0.993,-0.303 0.418,-0.608 -0.331,-0.263 -0.58,0.755 -0.494,0.58 0.323,0.258 0.285,-0.259 3.786,1.087 c 0.212,-0.141 0.481,-0.214 0.684,-0.263 l 0.113,-0.143 -2.138,-3.74 0.216,-0.369 -0.33,-0.264 -0.524,0.701"
       style="fill:#ffffff;fill-opacity:1;fill-rule:nonzero;stroke:none"
       id="path3880" /><path
       d="m 37.541,11.814935 -1.405,-1.681 c -0.647,-0.7750004 -1.543,-0.7670004 -2.481,0.016 -0.876,0.733 -1.165,1.738 -0.628,2.38 l 1.504,1.801 -0.517,0.5 0.27,0.324 0.945,-0.812 1.042,-0.848 -0.271,-0.324 -0.571,0.41 -1.395,-1.668 c -0.513,-0.615 -0.206,-1.165 0.073,-1.399 0.286,-0.238 1.046,-0.5710004 1.555,0.038 l 1.394,1.668 -0.485,0.473 0.271,0.324 0.706,-0.6 0.782,-0.643 -0.27,-0.324 -0.519,0.365"
       style="fill:#ffffff;fill-opacity:1;fill-rule:nonzero;stroke:none"
       id="path3882" /><path
       d="m 43.05,8.9989346 -1.521,-3.421 -0.664,0.295 -1.022,3.692 -0.989,-2.223 0.565,-0.307 -0.175,-0.395 -0.812,0.39 -0.929,0.384 0.172,0.387 0.606,-0.213 1.261,2.8380004 c -0.05,0.164 -0.237,0.275 -0.625,0.447 l 0.179,0.402 1.566,-0.696 0.941,-3.3440004 0.893,2.010001 -0.565,0.307999 0.172,0.385 0.82,-0.373 0.913,-0.396001 -0.172,-0.386999 -0.614,0.217"
       style="fill:#ffffff;fill-opacity:1;fill-rule:nonzero;stroke:none"
       id="path3884" /><path
       d="m 45.929,4.4909346 c -0.376,0.059 -0.635,0.143 -1.104,0.337 l -0.037,-0.125 -0.436,0.068 0.088,0.291 0.205,0.973 0.418,-0.066 c -0.067,-0.547 0.257,-0.938 0.711,-1.009 0.462,-0.072 0.706,0.143 0.756,0.467 0.06,0.383 -0.551,0.732 -1.04,1.201 -0.374,0.354001 -0.675,0.785 -0.596,1.288 0.113,0.724 0.759,1.051001 1.701,0.905001 0.256,-0.04 0.77,-0.173001 0.962,-0.237001 l 0.088,0.17 0.393,-0.062 -0.199,-1.276999 -0.419,0.063999 c 0.016,0.495001 -0.208,0.801 -0.662,0.871 -0.471,0.074 -0.63,-0.276999 -0.659,-0.464999 -0.058,-0.366001 0.417,-0.693 0.872,-1.095001 0.429,-0.39 0.834,-0.836 0.747,-1.39 -0.12,-0.775 -0.83,-1.058 -1.789,-0.909"
       style="fill:#ffffff;fill-opacity:1;fill-rule:nonzero;stroke:none"
       id="path3886" /><path
       d="m 51.865,4.3479346 c -1.396,-0.13 -2.513,0.659 -2.634,1.947 -0.103,1.107001 0.659,2.27 2.167,2.411 0.691,0.064 0.813,0.058 1.268,0.031 l 0.011,0.166001 0.414,0.038 0.035,-0.386001 0.121,-1.011 -0.414,-0.038 c -0.111,0.629001 -0.656,0.787001 -1.269,0.730001 -0.646,-0.060001 -1.197,-0.778001 -1.103,-1.783001 0.089,-0.962 0.834,-1.672 1.498,-1.611 0.655,0.062 0.985,0.257 0.984,0.265 0.04,0.125 0.047,0.706 0.046,0.811 l 0.414,0.038 0.105,-1.125 c -0.612,-0.247 -0.797,-0.404 -1.643,-0.483"
       style="fill:#ffffff;fill-opacity:1;fill-rule:nonzero;stroke:none"
       id="path3888" /><path
       d="m 60,6.7809346 -1.21,-0.518 -0.161,0.390001 0.625,0.323999 -0.524,1.267 -1.865,-0.772 0.525,-1.266 0.663,0.209 0.161,-0.391 -1.175,-0.467 -1.185,-0.509 -0.162,0.39 0.618,0.321 -1.227,2.964 -0.659,-0.215999 -0.162,0.389999 1.199,0.478001 1.161,0.498999 0.162,-0.391 -0.62,-0.312 0.514,-1.243999 1.864,0.771 -0.514,1.243999 -0.668,-0.221 -0.162,0.3910004 1.167,0.464 1.202,0.516 0.162,-0.391 -0.628,-0.316 1.225,-2.9640004 0.671,0.212001 0.162,-0.391001 -1.159,-0.461"
       style="fill:#ffffff;fill-opacity:1;fill-rule:nonzero;stroke:none"
       id="path3890" /><path
       d="m 65.42,15.282935 1.329,-3.857 -0.491,-0.424 -1.761,0.873 0.634,-1.847 -0.531,-0.4590004 -3.681,1.8240004 -0.356,-0.238 -0.276,0.32 0.726,0.604 0.755,0.676 0.276,-0.321 -0.221,-0.247 2.479,-1.279 -0.503,1.31 -1.223,0.608 -0.283,-0.176 -0.276,0.319 0.654,0.542 0.873,0.778 0.276,-0.321 -0.372,-0.377 2.472,-1.285 -0.966,2.575 -0.446,-0.318 -0.277,0.32 0.68,0.564 0.515,0.49 0.288,-0.333 -0.294,-0.321"
       style="fill:#ffffff;fill-opacity:1;fill-rule:nonzero;stroke:none"
       id="path3892" /><path
       d="m 70.32301,15.787935 -0.347,-0.476 -0.78501,-1.132 -0.344,0.246 0.387,0.648 -2.622,1.864 -0.45699,-0.524 -0.34401,0.244 0.778,1.051 0.503,0.737 0.56201,0.79 -0.165,0.171 0.24599,0.346 0.274,-0.196 0.852,-0.573 -0.241,-0.339 -0.57599,0.262 -0.73201,-1.031 1.06,-0.754 0.54701,0.768 -0.35101,0.325 0.24101,0.338 1.20199,-0.854 -0.24,-0.339 -0.444,0.241 -0.547,-0.769 0.991,-0.705 c 0.056,-0.04 0.113,-0.08 0.125,-0.078 0.057,0.066 0.12201,0.127 0.242,0.295 0.17101,0.241 0.414,0.567 0.43301,0.595 0.071,0.1 0.19099,0.269 0.182,0.285 -0.01101,0.03 -0.391,0.374 -0.47001,0.441 l 0.24601,0.345 0.91299,-0.649 -1.11899,-1.573"
       style="fill:#ffffff;fill-opacity:1;fill-rule:nonzero;stroke:none"
       id="path3894" /><path
       d="m 73.012,20.309935 -0.556,-1.164 -0.379,0.187 0.253,0.648 -2.878,1.42 -0.352,-0.598 -0.379,0.187 0.58601,1.149 0.544,1.142 0.37799,-0.187 -0.259,-0.644 2.877,-1.421 0.361,0.595 0.37901,-0.187 -0.57501,-1.127"
       style="fill:#ffffff;fill-opacity:1;fill-rule:nonzero;stroke:none"
       id="path3896" /><path
       d="m 74.177,27.606935 c 0.115,-0.036 0.28501,-0.098 0.483,-0.161 l 0.14801,-0.046 c 0.28499,-0.071 0.556,-0.13 0.78699,-0.056 -0.159,-0.504 -0.137,-0.465 -0.209,-0.897 -0.072,-0.459 -0.07999,-0.629 -0.248,-1.165 -0.53999,-1.719 -1.781,-2.101 -2.867,-1.76 -0.971,0.305 -1.843,1.386 -1.345,2.973 0.139,0.446 0.366,0.965 0.511,1.255 l -0.166,0.106 0.118,0.372 0.271,-0.086 1.08,-0.302 -0.12499,-0.397 c -0.61801,0.104 -0.987,-0.325 -1.20001,-1.002 -0.172,-0.546 0.305,-1.448 1.22701,-1.737 0.987,-0.311 1.86299,0.177 2.04699,0.764 0.096,0.305 0.109,0.519 0.082,0.746 l -0.931,0.292 -0.271,-0.66 -0.402,0.126 0.41,1.251 0.326,1.096 0.40401,-0.127 -0.13001,-0.585"
       style="fill:#ffffff;fill-opacity:1;fill-rule:nonzero;stroke:none"
       id="path3898" /><path
       d="m 26.466,35.996935 c 0.033,-1.409 -0.83,-2.474 -2.123,-2.504 -1.112,-0.026 -2.22,0.816 -2.256,2.338 -0.017,0.696 -0.002,0.818 0.056,1.271 l -0.164,0.022 -0.01,0.417 0.387,0.01 1.017,0.051 0.01,-0.418 c -0.637,-0.067 -0.831,-0.603 -0.817,-1.22 0.016,-0.652 0.695,-1.253 1.704,-1.23 0.965,0.024 1.725,0.721 1.709,1.39 -0.015,0.661 -0.187,1.005 -0.196,1.005 -0.122,0.049 -0.701,0.096 -0.804,0.102 l -0.01,0.418 1.129,0.027 c 0.205,-0.631 0.347,-0.827 0.368,-1.679"
       style="fill:#ffffff;fill-opacity:1;fill-rule:nonzero;stroke:none"
       id="path3900" /><path
       d="m 23.408,41.033935 1.186,-0.659 0.118,0.932 -1.304,-0.273 z m 3.38,1.35 -0.155,-1.356 -0.419,0.053 0.024,0.602 -1.004,-0.24 -0.172,-1.355 0.91,-0.502 0.144,0.728 0.419,-0.054 -0.138,-0.946 -0.071,-0.763 -0.41,0.053 -0.012,0.386 -3.42,1.96 c -0.046,0.251 -0.179,0.496 -0.287,0.677 l 0.023,0.181 4.173,1.083 0.113,0.415 0.419,-0.054 -0.137,-0.868"
       style="fill:#ffffff;fill-opacity:1;fill-rule:nonzero;stroke:none"
       id="path3902" /><path
       d="m 24.22,47.341935 -0.07,-0.233 1.529,-0.459 0.056,0.191 c 0.146,0.483 -0.164,0.831 -0.569,0.952 -0.355,0.107 -0.799,0.04 -0.946,-0.451 z m 4.64,1.085 -0.343,-0.696 c -0.29,-0.603 -1.931,-0.819 -2.5,-0.974 l -0.058,-0.191 1.28,-0.385 0.206,0.474 0.413,-0.124 -0.347,-1.067 -0.338,-1.216 -0.413,0.124 0.141,0.685 -3.064,0.92 -0.213,-0.799 -0.421,0.127 c 0.103,0.432 0.237,0.973 0.308,1.297 0.027,0.119 0.179,0.745 0.247,0.97 0.415,1.382 0.992,1.654 1.677,1.448 0.612,-0.184 0.885,-0.593 0.815,-1.216 0.179,0.055 1.936,0.417 2.018,0.511 0.132,0.141 0.125,0.143 0.233,0.356 l 0.359,-0.244"
       style="fill:#ffffff;fill-opacity:1;fill-rule:nonzero;stroke:none"
       id="path3904" /><path
       d="m 26.411,53.101935 c -0.355,-0.697 0.246,-1.395 1.015,-1.787 0.761,-0.388 1.702,-0.477 2.057,0.22 0.353,0.69 -0.3,1.404 -1.038,1.78 -0.729,0.372 -1.682,0.476 -2.034,-0.213 z m 3.487,-1.779 c -0.739,-1.448 -2.077,-1.606 -3.03,-1.12 -0.952,0.486 -1.611,1.661 -0.872,3.111 0.732,1.433 2.062,1.595 3.015,1.108 0.929,-0.473 1.619,-1.665 0.887,-3.099"
       style="fill:#ffffff;fill-opacity:1;fill-rule:nonzero;stroke:none"
       id="path3906" /><path
       d="m 33.621,57.165935 -1.108,-1.451 -0.366,-0.466 -0.788,-1.06 -0.336,0.256 0.374,0.589 -2.55,1.947 -0.463,-0.522 -0.336,0.257 0.809,1.033 0.747,1.006 0.335,-0.256 -0.38,-0.585 2.585,-1.972 c 0.043,0.055 0.582,0.792 0.609,0.826 0.073,0.096 0.18,0.278 0.17,0.308 -0.011,0.03 -0.39,0.571 -0.449,0.649 l 0.263,0.346 0.884,-0.905"
       style="fill:#ffffff;fill-opacity:1;fill-rule:nonzero;stroke:none"
       id="path3908" /><path
       d="m 33.24,62.070935 c -0.583,-0.521 -0.273,-1.389 0.302,-2.032 0.568,-0.636 1.414,-1.06 1.998,-0.539 0.576,0.516 0.226,1.417 -0.326,2.034 -0.546,0.611 -1.397,1.053 -1.974,0.537 z m 2.611,-2.918 c -1.213,-1.083 -2.518,-0.747 -3.231,0.051 -0.713,0.797 -0.902,2.131 0.31,3.215 1.199,1.072 2.499,0.741 3.211,-0.056 0.696,-0.779 0.909,-2.138 -0.29,-3.21"
       style="fill:#ffffff;fill-opacity:1;fill-rule:nonzero;stroke:none"
       id="path3910" /><path
       d="m 37.492,62.516935 -0.502,0.835 1.879,1.129 0.502,-0.836 -1.879,-1.128"
       style="fill:#ffffff;fill-opacity:1;fill-rule:nonzero;stroke:none"
       id="path3912" /><path
       d="m 44.747,68.066935 -0.208,-4.07599 -0.617,-0.21101 -1.313,1.464 -0.101,-1.95 -0.666,-0.229 -2.744,3.061 -0.42,-0.09 -0.138,0.40001 0.902,0.292 0.957,0.346 0.137,-0.39901 -0.299,-0.148 1.828,-2.108 0.024,1.404 -0.911,1.01701 -0.329,-0.058 -0.138,0.39999 0.811,0.261 1.105,0.39701 0.138,-0.39901 -0.488,-0.21399 1.82,-2.111 0.066,2.75 -0.535,-0.12901 -0.138,0.4 0.845,0.27101 0.663,0.265 0.144,-0.416 -0.395,-0.19001"
       style="fill:#ffffff;fill-opacity:1;fill-rule:nonzero;stroke:none"
       id="path3914" /><path
       d="m 48.02,64.616945 -1.291,-0.10601 -0.03,0.421 0.691,0.109 -0.224,3.20101 -0.697,0.003 -0.03,0.422 1.294,0.07301 1.265,0.10499 0.029,-0.42099 -0.69,-0.1 0.224,-3.20201 0.698,-0.011 0.029,-0.422 -1.268,-0.07199"
       style="fill:#ffffff;fill-opacity:1;fill-rule:nonzero;stroke:none"
       id="path3916" /><path
       d="m 54.228,64.114935 -1.803,0.292 -0.582,0.103 -1.308,0.193 0.068,0.418 0.697,-0.051 0.513,3.167 -0.679,0.162 0.067,0.417 1.294,-0.227 1.239,-0.18199 -0.067,-0.41801 -0.695,0.06 -0.521,-3.21 c 0.07,-0.011 0.973,-0.14 1.016,-0.146 0.12,-0.01999 0.331,-0.028 0.351,-0.005 0.022,0.02199 0.32,0.61199 0.361,0.70199 l 0.429,-0.069 -0.38,-1.206"
       style="fill:#ffffff;fill-opacity:1;fill-rule:nonzero;stroke:none"
       id="path3918" /><path
       d="m 59.253,62.011935 -1.199,0.557 0.183,0.381 0.66,-0.251 0.595,1.23601 -1.826,0.878 -0.594,-1.23601 0.601,-0.356 -0.184,-0.381 -1.136,0.566 -1.175,0.54601 0.183,0.38099 0.653,-0.247 1.39,2.89201 -0.604,0.348 0.183,0.38099 1.161,-0.57699 1.151,-0.53501 -0.184,-0.38099 -0.649,0.25499 -0.583,-1.21299 1.826,-0.87801 0.583,1.21301 -0.612,0.35199 0.182,0.38101 1.129,-0.56201 1.192,-0.554 -0.184,-0.38099 -0.656,0.25899 -1.391,-2.892 0.609,-0.36 -0.183,-0.381 -1.121,0.559"
       style="fill:#ffffff;fill-opacity:1;fill-rule:nonzero;stroke:none"
       id="path3920" /><path
       d="m 62.472,59.652935 -0.446,0.389 -1.065,0.881 0.273,0.322 0.617,-0.443 2.081,2.453 -0.487,0.503 0.274,0.322 0.985,-0.869 0.694,-0.566 0.74401,-0.63 0.18299,0.149 0.325,-0.275 -0.21699,-0.257 -0.64501,-0.8 -0.318,0.271 0.309,0.552 -0.968,0.821 -0.843,-0.993 0.72199,-0.614 0.35402,0.323 0.31799,-0.27 -0.954,-1.125 -0.318,0.271 0.277,0.421 -0.722,0.613 -0.788,-0.928 c -0.045,-0.053 -0.088,-0.105 -0.087,-0.117 0.06,-0.063 0.115,-0.133 0.274,-0.268 0.226,-0.191 0.532,-0.462 0.559,-0.484 0.092,-0.079 0.251,-0.214 0.269,-0.206 0.03,0.008 0.406,0.356 0.48001,0.431 l 0.32499,-0.277 -0.726,-0.854 -1.479,1.254"
       style="fill:#ffffff;fill-opacity:1;fill-rule:nonzero;stroke:none"
       id="path3922" /><path
       d="m 67.024,54.712935 -1.142,1.425 -0.362,0.467 -0.841,1.02 0.33,0.265 0.482,-0.505 2.502,2.008 -0.39399,0.575 0.32999,0.265 0.807,-1.035 0.797,-0.967 -0.329,-0.265 -0.47699,0.511 -2.53601,-2.035 c 0.044,-0.054 0.628,-0.756 0.656,-0.789 0.076,-0.096 0.22701,-0.243 0.257,-0.24 0.032,0.003 0.64801,0.241 0.739,0.28 l 0.27101,-0.339 -1.09001,-0.641"
       style="fill:#ffffff;fill-opacity:1;fill-rule:nonzero;stroke:none"
       id="path3924" /><path
       d="m 69.944,49.411935 -0.50401,0.964 0.37701,0.19 0.27001,-0.419 2.39899,1.256 -3.70399,-0.064 2.05699,2.876 -2.269,-1.055 0.207,-0.528 -0.377,-0.19 -0.297,0.629 -0.508,0.97 0.378,0.191 0.339,-0.56 2.931,1.35 -0.26899,0.652 0.377,0.19 0.48899,-0.99 0.31601,-0.61 -1.67801,-2.305 2.8,0.076 0.243,-0.501 0.672,-1.316 -0.378,-0.19 -0.374,0.629 -2.83899,-1.536 0.28299,-0.675 -0.377,-0.19 -0.564,1.156"
       style="fill:#ffffff;fill-opacity:1;fill-rule:nonzero;stroke:none"
       id="path3926" /><path
       d="m 71.10101,46.036935 -0.38701,1.238 0.405,0.12 0.25701,-0.65 3.07499,0.914 -0.148,0.682 0.405,0.12 0.353,-1.247 0.377,-1.212 -0.404,-0.12 -0.248,0.652 -3.076,-0.914 0.14101,-0.683 -0.40601,-0.121 -0.34399,1.221"
       style="fill:#ffffff;fill-opacity:1;fill-rule:nonzero;stroke:none"
       id="path3928" /><path
       d="m 76.05,39.794935 -3.707,-0.515 -0.101,0.723 2.59401,2.827 -2.40901,-0.334 0.037,-0.644 -0.427,-0.06 -0.099,0.9 -0.165,0.995 0.419,0.057 0.14,-0.63 3.07501,0.427 c 0.11299,0.13 0.109,0.349 0.04999,0.772 l 0.43601,0.06 0.23699,-1.706 -2.342,-2.572 2.178,0.303 -0.037,0.644 0.41901,0.058 0.115,-0.897 0.14599,-0.989 -0.41901,-0.058 -0.13999,0.639"
       style="fill:#ffffff;fill-opacity:1;fill-rule:nonzero;stroke:none"
       id="path3930" /><path
       d="m 75.649,35.930935 -1.247,0.532 -0.021,-0.939 1.268,0.407 z m -3.22,-1.694 0.013,1.366 0.42201,-0.01 0.03899,-0.601 0.97401,0.343 0.03,1.365 -0.95701,0.404 -0.068,-0.737 -0.423,0.009 0.039,0.956 -0.009,0.766 0.41299,-0.01 0.052,-0.384 3.606,-1.593 c 0.072,-0.246 0.231,-0.476 0.356,-0.644 l -0.004,-0.182 -4.03599,-1.511 -0.07001,-0.425 -0.422,0.01 0.045,0.878"
       style="fill:#ffffff;fill-opacity:1;fill-rule:nonzero;stroke:none"
       id="path3932" /><path
       d="m 92.547,56.104935 0,-8.355 -1.815,0 0,8.355 -2.90999,0 0,1.545 7.65,0 0,-1.545 -2.92501,0"
       style="fill:#ffffff;fill-opacity:1;fill-rule:nonzero;stroke:none"
       id="path3934" /><path
       d="m 98.53201,53.374935 c -0.225,0 -0.70501,-0.165 -0.765,-0.21 -0.03,-0.03 -0.48001,-0.465 -0.57,-1.095 l 2.69899,0 c -0.05899,0.78 -0.194,1.305 -1.36399,1.305 z m -1.39501,-2.43 c 0.04501,-0.93 0.719,-1.845 1.77001,-1.845 0.72,0 1.51499,0.3 2.35499,0.99 l 0.165,-1.77 c -0.81,-0.48 -1.545,-0.765 -2.88,-0.765 -1.90499,0 -3.33,1.35 -3.33,3.57 0,2.25 1.38001,3.6 3.31501,3.6 2.32399,0 2.99999,-1.23 2.99999,-3.78 l -4.395,0"
       style="fill:#ffffff;fill-opacity:1;fill-rule:nonzero;stroke:none"
       id="path3936" /><path
       d="m 106.543,47.554935 c -1.98,0 -3.36,1.335 -3.36,3.645 0,2.46 1.65,3.525 3.179,3.525 1.396,0 2.566,-0.315 2.566,-1.41 l 0,-0.39 c 0,-0.12 0,-0.24 -0.015,-0.39 l -1.756,0 c 0,0.63 -0.164,0.75 -0.644,0.75 -0.316,0 -0.465,-0.03 -0.571,-0.075 -0.149,-0.06 -0.839,-0.435 -0.839,-1.965 0,-1.755 0.99,-2.145 1.754,-2.145 0.465,0 1.005,0.03 1.996,0.87 l 0.165,-1.68 c -0.946,-0.555 -1.635,-0.735 -2.475,-0.735"
       style="fill:#ffffff;fill-opacity:1;fill-rule:nonzero;stroke:none"
       id="path3938" /><path
       d="m 117.057,47.749935 -1.815,0 c 0.03,1.725 0.06,2.085 0.06,3 0,1.92 -0.06,2.4 -0.81,2.4 -0.285,0 -0.735,-0.06 -0.855,-0.15 -0.105,-0.075 -0.585,-0.435 -0.9,-0.81 l 0,-4.44 -1.815,0 0,10.95 1.815,0 0,-4.77 c 0.525,0.525 1.125,0.795 1.86,0.795 2.325,0 2.535,-1.44 2.535,-2.955 0,-0.27 -0.015,-0.555 -0.015,-0.825 -0.015,-0.975 -0.015,-1.485 -0.06,-3.195"
       style="fill:#ffffff;fill-opacity:1;fill-rule:nonzero;stroke:none"
       id="path3940" /><path
       d="m 125.368,47.749935 -1.815,0 c 0.045,1.98 0.059,2.16 0.059,3.45 0,0.255 0,0.555 -0.029,0.84 -0.061,0.87 -0.24,1.11 -0.78,1.11 -0.285,0 -0.765,-0.06 -0.855,-0.15 -0.105,-0.075 -0.6,-0.435 -0.9,-0.81 l 0,-4.44 -1.815,0 0,4.785 c 0,0.6 -0.105,1.635 -0.18,2.01 l 1.62,0 0.18,-0.795 c 0.6,0.675 1.275,0.975 2.055,0.975 2.324,0 2.534,-1.44 2.534,-2.955 l 0,-0.825 c -0.014,-0.975 -0.029,-1.485 -0.074,-3.195"
       style="fill:#ffffff;fill-opacity:1;fill-rule:nonzero;stroke:none"
       id="path3942" /><path
       d="m 127.483,54.544935 1.815,0 0,-6.795 -1.815,0 0,6.795 z m 0.9,1.29 c -0.57,0 -1.065,0.495 -1.065,1.095 0,0.6 0.495,1.08 1.065,1.08 0.585,0 1.05,-0.465 1.05,-1.065 0,-0.6 -0.465,-1.11 -1.05,-1.11"
       style="fill:#ffffff;fill-opacity:1;fill-rule:nonzero;stroke:none"
       id="path3944" /><path
       d="m 133.452,47.554935 c -0.854,0 -1.724,0.18 -2.489,0.66 l 0.194,1.5 c 0.796,-0.465 1.261,-0.675 2.25,-0.675 0.87,0 1.066,0.27 1.066,0.495 0,1.08 -3.526,0.78 -3.526,3.225 0,1.215 1.021,1.965 2.806,1.965 0.869,0 1.394,-0.18 2.34,-0.6 l -0.21,-1.59 c -0.915,0.675 -1.726,0.735 -2.22,0.735 -0.301,0 -0.9,-0.075 -0.9,-0.45 0,-1.02 3.554,-0.855 3.554,-3.135 0,-1.14 -0.99,-2.13 -2.865,-2.13"
       style="fill:#ffffff;fill-opacity:1;fill-rule:nonzero;stroke:none"
       id="path3946" /><path
       d="m 141.117,47.554935 c -1.98,0 -3.36,1.335 -3.36,3.645 0,2.46 1.65,3.525 3.18,3.525 1.395,0 2.565,-0.315 2.565,-1.41 l 0,-0.39 c 0,-0.12 0,-0.24 -0.015,-0.39 l -1.756,0 c 0,0.63 -0.164,0.75 -0.644,0.75 -0.316,0 -0.465,-0.03 -0.57,-0.075 -0.15,-0.06 -0.84,-0.435 -0.84,-1.965 0,-1.755 0.99,-2.145 1.755,-2.145 0.464,0 1.005,0.03 1.995,0.87 l 0.165,-1.68 c -0.946,-0.555 -1.635,-0.735 -2.475,-0.735"
       style="fill:#ffffff;fill-opacity:1;fill-rule:nonzero;stroke:none"
       id="path3948" /><path
       d="m 151.331,47.749935 -1.814,0 c 0.03,1.725 0.059,2.085 0.059,3 0,1.92 -0.059,2.4 -0.809,2.4 -0.286,0 -0.736,-0.06 -0.856,-0.15 -0.104,-0.075 -0.585,-0.435 -0.899,-0.81 l 0,-4.44 -1.816,0 0,10.95 1.816,0 0,-4.77 c 0.524,0.525 1.125,0.795 1.859,0.795 2.325,0 2.535,-1.44 2.535,-2.955 0,-0.27 -0.014,-0.555 -0.014,-0.825 -0.016,-0.975 -0.016,-1.485 -0.061,-3.195"
       style="fill:#ffffff;fill-opacity:1;fill-rule:nonzero;stroke:none"
       id="path3950" /><path
       d="m 156.267,53.374935 c -0.226,0 -0.705,-0.165 -0.766,-0.21 -0.029,-0.03 -0.48,-0.465 -0.569,-1.095 l 2.699,0 c -0.06,0.78 -0.194,1.305 -1.364,1.305 z m -1.396,-2.43 c 0.045,-0.93 0.72,-1.845 1.771,-1.845 0.719,0 1.514,0.3 2.354,0.99 l 0.165,-1.77 c -0.809,-0.48 -1.545,-0.765 -2.88,-0.765 -1.905,0 -3.33,1.35 -3.33,3.57 0,2.25 1.38,3.6 3.316,3.6 2.324,0 3,-1.23 3,-3.78 l -4.396,0"
       style="fill:#ffffff;fill-opacity:1;fill-rule:nonzero;stroke:none"
       id="path3952" /><path
       d="m 96.912,35.273935 c 0,-2.579 -1.76899,-3.704 -4.19999,-3.704 -2.02501,0 -3.944,1.185 -3.944,3.329 l 0,6.736 1.81399,0 0,-6.315 c 0,-1.756 1.245,-2.19 2.19,-2.19 1.14,0 2.32501,0.45 2.32501,2.205 l 0,6.3 1.81499,0 0,-6.361"
       style="fill:#ffffff;fill-opacity:1;fill-rule:nonzero;stroke:none"
       id="path3954" /><path
       d="m 104.981,31.749935 -1.814,0 c 0.045,1.979 0.06,2.16 0.06,3.45 0,0.255 0,0.555 -0.03,0.84 -0.06,0.87 -0.24,1.109 -0.78,1.109 -0.285,0 -0.765,-0.059 -0.854,-0.149 -0.106,-0.075 -0.601,-0.436 -0.901,-0.811 l 0,-4.439 -1.81399,0 0,4.785 c 0,0.6 -0.10601,1.635 -0.181,2.01 l 1.61999,0 0.18,-0.795 c 0.6,0.675 1.275,0.974 2.055,0.974 2.325,0 2.535,-1.439 2.535,-2.955 l 0,-0.824 c -0.015,-0.976 -0.03,-1.485 -0.076,-3.195"
       style="fill:#ffffff;fill-opacity:1;fill-rule:nonzero;stroke:none"
       id="path3956" /><path
       d="m 107.202,38.544935 1.815,0 0,-6.795 -1.815,0 0,6.795 z m 0.9,1.289 c -0.57,0 -1.065,0.495 -1.065,1.095 0,0.601 0.495,1.081 1.065,1.081 0.585,0 1.049,-0.466 1.049,-1.065 0,-0.601 -0.464,-1.111 -1.049,-1.111"
       style="fill:#ffffff;fill-opacity:1;fill-rule:nonzero;stroke:none"
       id="path3958" /><path
       d="m 114.326,31.554935 -1.364,0 -2.535,6.99 1.95,0 1.305,-4.14 1.335,4.14 1.83,0 -2.521,-6.99"
       style="fill:#ffffff;fill-opacity:1;fill-rule:nonzero;stroke:none"
       id="path3960" /><path
       d="m 121.197,37.374935 c -0.225,0 -0.705,-0.165 -0.765,-0.21 -0.03,-0.03 -0.48,-0.465 -0.57,-1.096 l 2.7,0 c -0.06,0.78 -0.195,1.306 -1.365,1.306 z m -1.395,-2.43 c 0.045,-0.931 0.719,-1.846 1.77,-1.846 0.72,0 1.515,0.301 2.355,0.991 l 0.165,-1.77 c -0.81,-0.48 -1.545,-0.765 -2.88,-0.765 -1.905,0 -3.33,1.35 -3.33,3.57 0,2.25 1.38,3.599 3.315,3.599 2.324,0 3,-1.229 3,-3.779 l -4.395,0"
       style="fill:#ffffff;fill-opacity:1;fill-rule:nonzero;stroke:none"
       id="path3962" /><path
       d="m 128.922,36.504935 c -0.015,0.33 0.016,0.705 -0.27,0.705 -0.24,0 -0.42,-0.316 -0.705,-0.825 l 0,-4.635 -1.814,0 0,4.8 c 0,0.66 -0.075,1.335 -0.181,1.995 l 1.62,0 0.18,-0.811 c 0.255,0.481 0.886,0.976 1.44,0.976 0.9,0 1.201,-0.555 1.201,-1.38 0,-0.21 -0.016,-0.436 -0.046,-0.646 l -1.425,-0.179"
       style="fill:#ffffff;fill-opacity:1;fill-rule:nonzero;stroke:none"
       id="path3964" /><path
       d="m 134.066,31.554935 c -0.854,0 -1.724,0.18 -2.489,0.66 l 0.194,1.5 c 0.796,-0.465 1.261,-0.675 2.25,-0.675 0.871,0 1.066,0.269 1.066,0.495 0,1.08 -3.525,0.779 -3.525,3.225 0,1.214 1.02,1.964 2.805,1.964 0.87,0 1.395,-0.179 2.34,-0.6 l -0.21,-1.589 c -0.915,0.675 -1.726,0.734 -2.221,0.734 -0.299,0 -0.899,-0.075 -0.899,-0.45 0,-1.019 3.555,-0.854 3.555,-3.135 0,-1.139 -0.991,-2.129 -2.866,-2.129"
       style="fill:#ffffff;fill-opacity:1;fill-rule:nonzero;stroke:none"
       id="path3966" /><path
       d="m 138.807,38.544935 1.814,0 0,-6.795 -1.814,0 0,6.795 z m 0.899,1.289 c -0.569,0 -1.064,0.495 -1.064,1.095 0,0.601 0.495,1.081 1.064,1.081 0.585,0 1.05,-0.466 1.05,-1.065 0,-0.601 -0.465,-1.111 -1.05,-1.111"
       style="fill:#ffffff;fill-opacity:1;fill-rule:nonzero;stroke:none"
       id="path3968" /><path
       d="m 145.076,31.554935 c -1.019,0 -1.769,0.645 -1.769,1.905 l 0,3.87 -0.991,0 0,1.2 0.991,0 0,2.31 1.785,0 0,-2.295 1.484,0 0,-1.201 -1.484,0 0,-3.524 c 0,-0.66 0.179,-0.69 0.345,-0.69 0.405,0 0.929,0.299 1.259,0.495 l 0.18,-1.5 c -0.585,-0.33 -1.23,-0.57 -1.8,-0.57"
       style="fill:#ffffff;fill-opacity:1;fill-rule:nonzero;stroke:none"
       id="path3970" /><path
       d="m 152.411,39.638935 c -0.54,0 -0.96,0.451 -0.96,0.991 0,0.554 0.39,1.034 0.96,1.034 0.54,0 0.96,-0.48 0.96,-1.02 0,-0.554 -0.42,-1.005 -0.96,-1.005 z m -0.57,-4.92 c -0.72,-0.179 -1.11,-0.299 -1.77,-0.584 -0.075,-0.21 -0.09,-0.286 -0.09,-0.51 0,-0.39 0.09,-0.72 0.54,-0.72 0.331,0 0.795,0.225 1.32,0.81 l 0,1.004 z m -1.965,4.92 c -0.54,0 -0.96,0.451 -0.96,0.991 0,0.554 0.391,1.034 0.96,1.034 0.54,0 0.96,-0.48 0.96,-1.02 0,-0.554 -0.42,-1.005 -0.96,-1.005 z m 2.385,-7.889 c -0.09,0.285 -0.105,0.405 -0.18,0.795 -0.33,-0.48 -1.019,-0.99 -1.89,-0.99 -1.185,0 -1.98,0.72 -1.98,1.695 0,0.599 0.12,1.17 0.33,1.425 0.36,0.48 2.37,1.035 3.3,1.214 l 0,0.51 c 0,0.736 -0.105,0.976 -0.869,0.976 -0.301,0 -0.87,-0.016 -0.96,-0.165 -0.091,-0.165 -0.075,-0.271 -0.091,-0.526 l -1.47,-0.134 c 0,0.105 -0.014,0.195 -0.014,0.285 0,0.375 0.059,0.689 0.149,1.019 0.075,0.27 1.155,0.87 2.535,0.87 1.59,0 2.55,-0.735 2.55,-1.95 l 0,-3.014 c 0,-0.75 0.135,-1.5 0.24,-2.01 l -1.65,0"
       style="fill:#ffffff;fill-opacity:1;fill-rule:nonzero;stroke:none"
       id="path3972" /><path
       d="m 157.811,31.554935 c -1.02,0 -1.77,0.645 -1.77,1.905 l 0,3.87 -0.99,0 0,1.2 0.99,0 0,2.31 1.785,0 0,-2.295 1.485,0 0,-1.201 -1.485,0 0,-3.524 c 0,-0.66 0.18,-0.69 0.345,-0.69 0.405,0 0.93,0.299 1.26,0.495 l 0.179,-1.5 c -0.585,-0.33 -1.229,-0.57 -1.799,-0.57"
       style="fill:#ffffff;fill-opacity:1;fill-rule:nonzero;stroke:none"
       id="path3974" /><path
       d="m 92.427,20.249935 -1.61899,0 0,-3.03 1.529,0 c 1.42499,0 1.97999,0.464 1.97999,1.53 0,1.005 -0.71899,1.5 -1.89,1.5 z m -0.18,3.989 -1.43899,-0.015 0,-2.504 1.304,0 c 1.18499,0 1.60499,0.509 1.60499,1.259 0,0.691 -0.49399,1.26 -1.47,1.26 z m 0.64601,-8.489 -3.90101,0 0,9.824 c 1.17,0.075 2.34,0.136 3.52601,0.136 2.234,0 3.134,-1.231 3.134,-2.521 0,-0.854 -0.43501,-1.8 -1.259,-2.114 1.125,-0.15 1.859,-1.23 1.859,-2.521 0,-1.679 -1.38001,-2.804 -3.359,-2.804"
       style="fill:#ffffff;fill-opacity:1;fill-rule:nonzero;stroke:none"
       id="path3976" /><path
       d="m 100.691,20.504935 c -0.014,0.33 0.016,0.705 -0.269,0.705 -0.24,0 -0.42,-0.316 -0.705,-0.825 l 0,-4.635 -1.81499,0 0,4.8 c 0,0.66 -0.07501,1.335 -0.18,1.995 l 1.61999,0 0.179,-0.811 c 0.255,0.481 0.886,0.976 1.441,0.976 0.899,0 1.2,-0.556 1.2,-1.38 0,-0.21 -0.016,-0.436 -0.046,-0.646 l -1.425,-0.179"
       style="fill:#ffffff;fill-opacity:1;fill-rule:nonzero;stroke:none"
       id="path3978" /><path
       d="m 106.602,18.719935 c -0.72,-0.18 -1.11,-0.3 -1.77,-0.585 -0.075,-0.21 -0.09,-0.286 -0.09,-0.51 0,-0.39 0.09,-0.72 0.54,-0.72 0.33,0 0.795,0.225 1.32,0.81 l 0,1.005 z m 0.419,-2.97 c -0.089,0.285 -0.104,0.405 -0.179,0.795 -0.33,-0.48 -1.02,-0.991 -1.89,-0.991 -1.185,0 -1.98,0.721 -1.98,1.696 0,0.599 0.12,1.17 0.33,1.425 0.36,0.48 2.37,1.035 3.3,1.214 l 0,0.51 c 0,0.736 -0.105,0.976 -0.87,0.976 -0.3,0 -0.87,-0.016 -0.96,-0.165 -0.09,-0.165 -0.075,-0.271 -0.09,-0.526 l -1.47,-0.134 c 0,0.105 -0.015,0.195 -0.015,0.285 0,0.375 0.06,0.689 0.15,1.019 0.075,0.271 1.155,0.87 2.535,0.87 1.59,0 2.55,-0.735 2.55,-1.95 l 0,-3.014 c 0,-0.75 0.134,-1.5 0.24,-2.01 l -1.651,0"
       style="fill:#ffffff;fill-opacity:1;fill-rule:nonzero;stroke:none"
       id="path3980" /><path
       d="m 115.076,15.749935 -0.18,0.795 c -0.54,-0.63 -1.214,-0.991 -2.055,-0.991 -1.8,0 -2.46,0.826 -2.46,2.536 l 0,4.455 1.815,0 0,-4.305 c 0,-0.615 0.045,-1.11 0.765,-1.11 0.195,0 0.645,0.03 0.825,0.134 0.24,0.181 0.705,0.571 0.915,0.826 l 0,4.455 1.815,0 0,-4.785 c 0,-0.675 0.075,-1.35 0.18,-2.01 l -1.62,0"
       style="fill:#ffffff;fill-opacity:1;fill-rule:nonzero;stroke:none"
       id="path3982" /><path
       d="m 124.692,15.749935 -1.815,0 c 0.045,1.979 0.06,2.16 0.06,3.45 0,0.255 0,0.555 -0.03,0.84 -0.06,0.87 -0.24,1.109 -0.78,1.109 -0.285,0 -0.765,-0.059 -0.855,-0.149 -0.105,-0.075 -0.6,-0.436 -0.9,-0.811 l 0,-4.439 -1.814,0 0,4.785 c 0,0.6 -0.106,1.635 -0.181,2.01 l 1.62,0 0.18,-0.795 c 0.6,0.675 1.275,0.974 2.055,0.974 2.325,0 2.535,-1.439 2.535,-2.955 l 0,-0.824 c -0.015,-0.975 -0.03,-1.485 -0.075,-3.195"
       style="fill:#ffffff;fill-opacity:1;fill-rule:nonzero;stroke:none"
       id="path3984" /><path
       d="m 128.922,15.553935 c -0.855,0 -1.725,0.181 -2.489,0.661 l 0.194,1.5 c 0.796,-0.465 1.261,-0.675 2.25,-0.675 0.87,0 1.065,0.269 1.065,0.495 0,1.08 -3.525,0.779 -3.525,3.225 0,1.214 1.021,1.964 2.806,1.964 0.87,0 1.394,-0.179 2.34,-0.599 l -0.21,-1.59 c -0.915,0.675 -1.726,0.734 -2.221,0.734 -0.3,0 -0.9,-0.075 -0.9,-0.45 0,-1.019 3.555,-0.854 3.555,-3.135 0,-1.139 -0.99,-2.13 -2.865,-2.13"
       style="fill:#ffffff;fill-opacity:1;fill-rule:nonzero;stroke:none"
       id="path3986" /><path
       d="m 136.242,15.553935 c -1.98,0 -3.36,1.335 -3.36,3.646 0,2.46 1.65,3.524 3.18,3.524 1.395,0 2.565,-0.314 2.565,-1.41 l 0,-0.389 c 0,-0.121 0,-0.241 -0.015,-0.39 l -1.756,0 c 0,0.63 -0.164,0.75 -0.644,0.75 -0.316,0 -0.465,-0.03 -0.57,-0.075 -0.15,-0.061 -0.84,-0.436 -0.84,-1.965 0,-1.755 0.99,-2.146 1.755,-2.146 0.464,0 1.005,0.031 1.995,0.871 l 0.165,-1.68 c -0.946,-0.555 -1.635,-0.736 -2.475,-0.736"
       style="fill:#ffffff;fill-opacity:1;fill-rule:nonzero;stroke:none"
       id="path3988" /><path
       d="m 146.411,15.749935 -1.814,0 c 0.03,1.724 0.059,2.085 0.059,3 0,1.92 -0.059,2.399 -0.809,2.399 -0.285,0 -0.736,-0.059 -0.856,-0.149 -0.104,-0.075 -0.585,-0.436 -0.899,-0.811 l 0,-4.439 -1.816,0 0,10.949 1.816,0 0,-4.77 c 0.524,0.526 1.125,0.795 1.859,0.795 2.325,0 2.535,-1.439 2.535,-2.955 0,-0.269 -0.014,-0.554 -0.014,-0.824 -0.016,-0.975 -0.016,-1.485 -0.061,-3.195"
       style="fill:#ffffff;fill-opacity:1;fill-rule:nonzero;stroke:none"
       id="path3990" /><path
       d="m 154.887,15.553935 -1.021,0 -1.38,3.196 -1.259,-3.196 -1.036,0 -2.714,6.991 1.919,0 1.441,-3.915 1.649,4.139 1.755,-4.215 1.395,3.991 1.756,0 -2.505,-6.991"
       style="fill:#ffffff;fill-opacity:1;fill-rule:nonzero;stroke:none"
       id="path3992" /><path
       d="m 161.217,21.374935 c -0.226,0 -0.705,-0.165 -0.766,-0.21 -0.029,-0.03 -0.479,-0.465 -0.569,-1.096 l 2.699,0 c -0.06,0.78 -0.194,1.306 -1.364,1.306 z m -1.396,-2.43 c 0.045,-0.931 0.72,-1.846 1.771,-1.846 0.72,0 1.514,0.301 2.354,0.991 l 0.165,-1.77 c -0.809,-0.48 -1.545,-0.766 -2.88,-0.766 -1.905,0 -3.33,1.351 -3.33,3.571 0,2.25 1.38,3.599 3.316,3.599 2.324,0 3,-1.229 3,-3.779 l -4.396,0"
       style="fill:#ffffff;fill-opacity:1;fill-rule:nonzero;stroke:none"
       id="path3994" /><path
       d="m 166.002,22.544935 1.814,0 0,-6.795 -1.814,0 0,6.795 z m 0.899,1.29 c -0.569,0 -1.064,0.495 -1.064,1.094 0,0.6 0.495,1.081 1.064,1.081 0.585,0 1.05,-0.465 1.05,-1.066 0,-0.599 -0.465,-1.109 -1.05,-1.109"
       style="fill:#ffffff;fill-opacity:1;fill-rule:nonzero;stroke:none"
       id="path3996" /><path
       d="m 172.721,21.358935 c -0.48,0 -0.81,-0.165 -0.885,-0.239 -0.075,-0.075 -0.345,-0.465 -0.345,-0.99 0,-0.736 0.45,-1.26 1.23,-1.26 0.405,0 0.795,0.194 0.855,0.24 0.075,0.074 0.345,0.36 0.345,1.02 0,0.719 -0.33,1.229 -1.2,1.229 z m 0.96,-6.284 c -0.72,0 -1.11,-0.061 -1.8,-0.075 -0.42,-0.3 -0.735,-0.6 -0.735,-0.99 0,-0.57 0.45,-0.735 1.425,-0.735 1.41,0 2.07,0.765 2.07,1.335 0,0.39 -0.045,0.465 -0.96,0.465 z m 2.025,5.85 c 0.09,-0.27 0.135,-0.451 0.135,-0.781 0,-1.604 -1.23,-2.684 -3.165,-2.684 -0.27,0 -0.54,0.014 -0.9,0.12 -0.24,-0.24 -0.435,-0.39 -0.435,-0.691 0,-0.254 0.225,-0.33 0.375,-0.33 0.75,0 1.395,0.076 2.145,0.076 1.619,0 2.625,-0.225 2.625,-1.8 0,-1.965 -2.13,-2.955 -4.095,-2.955 -1.59,0 -2.94,0.285 -2.94,1.634 0,0.991 0.736,1.381 1.215,1.651 -0.39,0.12 -1.035,0.42 -1.035,1.2 0,0.734 0.81,1.095 1.365,1.56 -0.885,0.495 -1.425,1.02 -1.425,2.219 0,1.486 1.275,2.58 3.12,2.58 0.945,0 1.395,-0.24 1.815,-0.495 0.345,0 1.425,0 2.325,0.241 l 0,-1.545 -1.125,0"
       style="fill:#ffffff;fill-opacity:1;fill-rule:nonzero;stroke:none"
       id="path3998" /></g></svg>